<svg width="417.649414" height="658.861084" viewBox="0 0 417.649 658.861" fill="none" xmlns="http://www.w3.org/2000/svg" xmlns:xlink="http://www.w3.org/1999/xlink">
	<desc>
			Created with Pixso.
	</desc>
	<defs>
		<filter id="filter_0_4914_dd" x="0.000000" y="0.000000" width="417.649414" height="658.861084" filterUnits="userSpaceOnUse" color-interpolation-filters="sRGB">
			<feFlood flood-opacity="0" result="BackgroundImageFix"/>
			<feColorMatrix in="SourceAlpha" type="matrix" values="0 0 0 0 0 0 0 0 0 0 0 0 0 0 0 0 0 0 127 0" result="hardAlpha"/>
			<feOffset dx="25" dy="25"/>
			<feGaussianBlur stdDeviation="26.6667"/>
			<feComposite in2="hardAlpha" operator="out" k2="-1" k3="1"/>
			<feColorMatrix type="matrix" values="0 0 0 0 0.21176 0 0 0 0 0.32549 0 0 0 0 0.41961 0 0 0 0.3 0"/>
			<feBlend mode="normal" in2="BackgroundImageFix" result="effect_dropShadow_1"/>
			<feBlend mode="normal" in="SourceGraphic" in2="effect_dropShadow_1" result="shape"/>
		</filter>
		<clipPath id="clip0_4922">
			<rect id="Screen" width="233.000000" height="465.000000" transform="translate(67.506348 66.875000)" fill="white" fill-opacity="0"/>
		</clipPath>
		<filter id="filter_0_4928_dd" x="69.432129" y="216.430542" width="248.000000" height="117.000000" filterUnits="userSpaceOnUse" color-interpolation-filters="sRGB">
			<feFlood flood-opacity="0" result="BackgroundImageFix"/>
			<feColorMatrix in="SourceAlpha" type="matrix" values="0 0 0 0 0 0 0 0 0 0 0 0 0 0 0 0 0 0 127 0" result="hardAlpha"/>
			<feMorphology radius="-10" in="" result="BackgroundImageFix"/>
			<feOffset dx="10" dy="10"/>
			<feGaussianBlur stdDeviation="8.33333"/>
			<feComposite in2="hardAlpha" operator="out" k2="-1" k3="1"/>
			<feColorMatrix type="matrix" values="0 0 0 0 0.21176 0 0 0 0 0.32549 0 0 0 0 0.41961 0 0 0 0.25 0"/>
			<feBlend mode="normal" in2="BackgroundImageFix" result="effect_dropShadow_1"/>
			<feBlend mode="normal" in="SourceGraphic" in2="effect_dropShadow_1" result="shape"/>
		</filter>
		<clipPath id="clip0_4929">
			<rect id="Group 28" rx="-0.500000" width="186.000000" height="10.000000" transform="translate(90.932129 237.930542)" fill="white" fill-opacity="0"/>
		</clipPath>
		<clipPath id="clip0_4927">
			<rect id="Group 29" width="218.000000" height="87.000000" transform="translate(74.432129 221.430542)" fill="white" fill-opacity="0"/>
		</clipPath>
		<linearGradient x1="62.446777" y1="54.430542" x2="62.446777" y2="66.754486" id="paint_linear_0_4916_0" gradientUnits="userSpaceOnUse">
			<stop stop-color="#454545"/>
			<stop offset="0.226279" stop-color="#999999"/>
			<stop offset="1.000000" stop-color="#FFFFFF"/>
		</linearGradient>
		<linearGradient x1="312.535522" y1="140.178406" x2="303.074585" y2="140.178406" id="paint_linear_0_4917_0" gradientUnits="userSpaceOnUse">
			<stop stop-color="#FFFFFF" stop-opacity="0.000000"/>
			<stop offset="0.222178" stop-color="#BABABA"/>
			<stop offset="0.546780" stop-color="#FFFFFF" stop-opacity="0.000000"/>
			<stop offset="1.000000" stop-color="#FFFFFF" stop-opacity="0.000000"/>
		</linearGradient>
		<linearGradient x1="55.000107" y1="139.916290" x2="64.476181" y2="139.916290" id="paint_linear_0_4918_0" gradientUnits="userSpaceOnUse">
			<stop stop-color="#FFFFFF" stop-opacity="0.000000"/>
			<stop offset="0.222178" stop-color="#BABABA"/>
			<stop offset="0.546780" stop-color="#FFFFFF" stop-opacity="0.000000"/>
			<stop offset="1.000000" stop-color="#FFFFFF" stop-opacity="0.000000"/>
		</linearGradient>
		<linearGradient x1="68.339081" y1="66.875000" x2="68.339081" y2="528.254883" id="paint_linear_0_4925_0" gradientUnits="userSpaceOnUse">
			<stop stop-color="#9CB6CD"/>
			<stop offset="0.420564" stop-color="#9AB3CA"/>
			<stop offset="0.716592" stop-color="#557496"/>
			<stop offset="1.000000" stop-color="#475178"/>
		</linearGradient>
	</defs>
	<g filter="url(#filter_0_4914_dd)">
		<path id="body" d="M88.2 55L279.44 55C297.78 55 312.64 69.23 312.64 86.79L312.64 522.06C312.64 539.62 297.78 553.86 279.44 553.86L88.2 553.86C69.86 553.86 55 539.62 55 522.06L55 86.79C55 69.23 69.86 55 88.2 55Z" fill="#213648" fill-opacity="1.000000" fill-rule="evenodd"/>
		<path id="body" d="M279.44 55C297.78 55 312.64 69.23 312.64 86.79L312.64 522.06C312.64 539.62 297.78 553.86 279.44 553.86L88.2 553.86C69.86 553.86 55 539.62 55 522.06L55 86.79C55 69.23 69.86 55 88.2 55L279.44 55Z" stroke="#979797" stroke-opacity="1.000000" stroke-width="0.000000"/>
	</g>
	<g opacity="0.595562" style="mix-blend-mode:normal">
		<path id="reflect-frame-top" d="M280.18 54.43L87.35 54.43C78.35 54.97 70.04 59.08 62.44 66.75C67.33 62.48 76.05 56.77 87.58 56.77C87.58 56.77 272.26 56.77 279.94 56.77C291.47 56.77 300.19 62.48 305.08 66.75C297.48 59.08 289.18 54.97 280.18 54.43Z" fill="url(#paint_linear_0_4916_0)" fill-opacity="0.650000" fill-rule="evenodd"/>
		<path id="reflect-frame-top" d="M87.35 54.43C78.35 54.97 70.04 59.08 62.44 66.75C67.33 62.48 76.05 56.77 87.58 56.77C87.58 56.77 272.26 56.77 279.94 56.77C291.47 56.77 300.19 62.48 305.08 66.75C297.48 59.08 289.18 54.97 280.18 54.43L87.35 54.43Z" stroke="#979797" stroke-opacity="1.000000" stroke-width="0.000000"/>
	</g>
	<g opacity="0.750000" style="mix-blend-mode:normal">
		<path id="reflect-frame-right" d="M307.43 517.1L307.43 89.41C307.43 77.93 303.21 73.69 300.69 70.97C298.18 68.24 298.07 66.85 301.69 68.91C305.3 70.97 312.53 76.96 312.53 89.41L312.53 517.1C312.53 529.55 305.3 535.54 301.69 537.59C298.07 539.65 298.18 538.26 300.69 535.54C303.21 532.81 307.43 528.57 307.43 517.1Z" fill="url(#paint_linear_0_4917_0)" fill-opacity="1.000000" fill-rule="evenodd"/>
		<path id="reflect-frame-right" d="M307.43 89.41C307.43 77.93 303.21 73.69 300.69 70.97C298.18 68.24 298.07 66.85 301.69 68.91C305.3 70.97 312.53 76.96 312.53 89.41L312.53 517.1C312.53 529.55 305.3 535.54 301.69 537.59C298.07 539.65 298.18 538.26 300.69 535.54C303.21 532.81 307.43 528.57 307.43 517.1L307.43 89.41Z" stroke="#979797" stroke-opacity="1.000000" stroke-width="0.000000"/>
	</g>
	<g opacity="0.750000" style="mix-blend-mode:normal">
		<path id="reflect-frame-left" d="M60.1 517.1L60.1 89.41C60.1 77.93 64.32 73.69 66.83 70.97C69.35 68.24 69.46 66.85 65.84 68.91C62.23 70.97 55 76.96 55 89.41L55 517.1C55 529.55 62.23 535.54 65.84 537.59C69.46 539.65 69.35 538.26 66.83 535.54C64.32 532.81 60.1 528.57 60.1 517.1Z" fill="url(#paint_linear_0_4918_0)" fill-opacity="1.000000" fill-rule="evenodd"/>
		<path id="reflect-frame-left" d="M60.1 89.41C60.1 77.93 64.32 73.69 66.83 70.97C69.35 68.24 69.46 66.85 65.84 68.91C62.23 70.97 55 76.96 55 89.41L55 517.1C55 529.55 62.23 535.54 65.84 537.59C69.46 539.65 69.35 538.26 66.83 535.54C64.32 532.81 60.1 528.57 60.1 517.1L60.1 89.41Z" stroke="#979797" stroke-opacity="1.000000" stroke-width="0.000000"/>
	</g>
	<path id="vol+" d="M52.43 157.98C52.43 156.88 53.32 155.98 54.43 155.98L55.39 155.98C56.5 155.98 57.39 156.88 57.39 157.98L57.39 218.33C57.39 219.44 56.5 220.33 55.39 220.33L54.43 220.33C53.32 220.33 52.43 219.44 52.43 218.33L52.43 157.98Z" fill="#2E423C" fill-opacity="1.000000" fill-rule="evenodd"/>
	<path id="vol+" d="M55.39 155.98C56.5 155.98 57.39 156.88 57.39 157.98L57.39 218.33C57.39 219.44 56.5 220.33 55.39 220.33L54.43 220.33C53.32 220.33 52.43 219.44 52.43 218.33L52.43 157.98C52.43 156.88 53.32 155.98 54.43 155.98L55.39 155.98Z" stroke="#979797" stroke-opacity="1.000000" stroke-width="0.000000"/>
	<path id="power" d="M309.96 210.47C309.96 209.36 310.86 208.47 311.96 208.47L312.93 208.47C314.03 208.47 314.93 209.36 314.93 210.47L314.93 253.42C314.93 254.52 314.03 255.42 312.93 255.42L311.96 255.42C310.86 255.42 309.96 254.52 309.96 253.42L309.96 210.47Z" fill="#2E423C" fill-opacity="1.000000" fill-rule="evenodd"/>
	<path id="power" d="M312.93 208.47C314.03 208.47 314.93 209.36 314.93 210.47L314.93 253.42C314.93 254.52 314.03 255.42 312.93 255.42L311.96 255.42C310.86 255.42 309.96 254.52 309.96 253.42L309.96 210.47C309.96 209.36 310.86 208.47 311.96 208.47L312.93 208.47Z" stroke="#979797" stroke-opacity="1.000000" stroke-width="0.000000"/>
	<rect id="Screen" width="233.000000" height="465.000000" transform="translate(67.506348 66.875000)" fill="#FFFFFF" fill-opacity="0"/>
	<g clip-path="url(#clip0_4922)">
		<path id="Screen Mask" d="M161.1 66.87L86.7 66.87C75.59 66.87 67.5 74.43 67.5 84.31L67.5 506.7C67.5 519.58 80 530.99 94.14 530.99L273.47 530.99C287.09 530.99 300.11 519.49 300.11 506.7L300.11 85.45C300.11 73.61 291.32 66.94 280.92 66.87L205.33 66.87C205.05 66.92 199.85 69.05 197.66 74.43C195.46 79.81 191.05 84.1 186.21 84.1L180.6 84.1C178.3 84.1 172.25 81.88 169.19 74.43C166.12 66.99 161.39 66.92 161.1 66.87Z" fill="#FFFFFF" fill-opacity="1.000000" fill-rule="evenodd"/>
		<path id="Screen Mask" d="M86.7 66.87C75.59 66.87 67.5 74.43 67.5 84.31L67.5 506.7C67.5 519.58 80 530.99 94.14 530.99L273.47 530.99C287.09 530.99 300.11 519.49 300.11 506.7L300.11 85.45C300.11 73.61 291.32 66.94 280.92 66.87L205.33 66.87C205.05 66.92 199.85 69.05 197.66 74.43C195.46 79.81 191.05 84.1 186.21 84.1L180.6 84.1C178.3 84.1 172.25 81.88 169.19 74.43C166.12 66.99 161.39 66.92 161.1 66.87L86.7 66.87Z" stroke="#979797" stroke-opacity="0" stroke-width="0.000000"/>
		<mask id="mask0_4923" mask-type="alpha" maskUnits="userSpaceOnUse" x="67.506348" y="66.875000" width="232.611389" height="464.123016">
			<path id="Screen Mask" d="M161.1 66.87L86.7 66.87C75.59 66.87 67.5 74.43 67.5 84.31L67.5 506.7C67.5 519.58 80 530.99 94.14 530.99L273.47 530.99C287.09 530.99 300.11 519.49 300.11 506.7L300.11 85.45C300.11 73.61 291.32 66.94 280.92 66.87L205.33 66.87C205.05 66.92 199.85 69.05 197.66 74.43C195.46 79.81 191.05 84.1 186.21 84.1L180.6 84.1C178.3 84.1 172.25 81.88 169.19 74.43C166.12 66.99 161.39 66.92 161.1 66.87Z" fill="#FFFFFF" fill-opacity="1.000000" fill-rule="evenodd"/>
			<path id="Screen Mask" d="M86.7 66.87C75.59 66.87 67.5 74.43 67.5 84.31L67.5 506.7C67.5 519.58 80 530.99 94.14 530.99L273.47 530.99C287.09 530.99 300.11 519.49 300.11 506.7L300.11 85.45C300.11 73.61 291.32 66.94 280.92 66.87L205.33 66.87C205.05 66.92 199.85 69.05 197.66 74.43C195.46 79.81 191.05 84.1 186.21 84.1L180.6 84.1C178.3 84.1 172.25 81.88 169.19 74.43C166.12 66.99 161.39 66.92 161.1 66.87L86.7 66.87Z" stroke="#979797" stroke-opacity="0" stroke-width="0.000000"/>
		</mask>
		<g mask="url(#mask0_4923)">
			<rect id="Rectangle" x="67.432129" y="66.875000" width="233.000000" height="465.000000" fill="url(#paint_linear_0_4925_0)" fill-opacity="1.000000"/>
			<rect id="Rectangle" x="67.432129" y="66.875000" width="233.000000" height="465.000000" stroke="#979797" stroke-opacity="0" stroke-width="0.000000"/>
		</g>
		<g mask="url(#mask0_4923)">
			<path id="12:49" d="M210.08 179.9C210.06 175.22 213.56 171.81 218.77 171.83C223.56 171.86 228.06 174.75 228.06 183.18C228.08 191.08 224.36 195.75 218.59 195.75C213.94 195.75 210.76 192.78 210.31 188.86L215.16 188.86C215.53 190.55 216.81 191.53 218.59 191.53C221.63 191.53 223.24 188.72 223.24 184.11L223.09 184.11C222.06 186.15 219.78 187.39 217.22 187.39C213.09 187.39 210.09 184.25 210.08 179.9ZM175.56 195.43L158.97 195.43L158.97 191.88L167.26 184.21C169.37 182.18 170.51 180.9 170.51 179.05C170.51 177 168.99 175.73 166.94 175.73C164.81 175.73 163.41 177.1 163.41 179.32L158.74 179.32C158.74 174.75 162.09 171.83 166.97 171.83C171.96 171.83 175.26 174.68 175.26 178.72C175.26 181.37 173.97 183.55 169.19 187.92L165.79 191.25L165.79 191.4L175.56 191.4L175.56 195.43ZM148.81 172.15L153.44 172.15L153.44 195.43L148.52 195.43L148.52 176.82L148.38 176.82L143.05 180.17L143.05 175.8L148.81 172.15ZM199.47 191.33L188.3 191.33L188.3 187.46L198.02 172.15L204.17 172.15L204.17 187.39L207.07 187.39L207.07 191.33L204.17 191.33L204.17 195.43L199.47 195.43L199.47 191.33ZM222.76 179.75C222.74 177.54 221.06 175.7 218.81 175.7C216.52 175.7 214.83 177.5 214.84 179.77C214.86 182.05 216.49 183.82 218.76 183.82C221.01 183.82 222.77 181.98 222.76 179.75ZM184.74 178.58C184.72 180.1 183.46 181.31 182 181.31C180.5 181.31 179.27 180.1 179.28 178.58C179.27 177.1 180.5 175.88 182 175.88C183.46 175.88 184.72 177.1 184.74 178.58ZM193.26 187.39L199.57 187.39L199.57 177.52L199.39 177.52L193.26 187.21L193.26 187.39ZM184.74 190C184.72 191.5 183.46 192.72 182 192.72C180.5 192.72 179.27 191.5 179.28 190C179.27 188.5 180.5 187.29 182 187.29C183.46 187.29 184.72 188.5 184.74 190Z" fill="#FFFFFF" fill-opacity="1.000000" fill-rule="evenodd"/>
		</g>
	</g>
	<rect id="Screen" width="233.000000" height="465.000000" transform="translate(67.506348 66.875000)" stroke="#979797" stroke-opacity="1.000000" stroke-width="1.000000"/>
	<rect id="Group 29" width="218.000000" height="87.000000" transform="translate(74.432129 221.430542)" fill="#FFFFFF" fill-opacity="0"/>
	<g clip-path="url(#clip0_4927)">
		<g filter="url(#filter_0_4928_dd)">
			<rect id="Rectangle" x="74.432129" y="221.430542" rx="5.000000" width="218.000000" height="87.000000" fill="#FBFCFE" fill-opacity="1.000000"/>
			<rect id="Rectangle" x="74.432129" y="221.430542" rx="5.000000" width="218.000000" height="87.000000" stroke="#979797" stroke-opacity="0" stroke-width="0.000000"/>
		</g>
		<rect id="Group 28" rx="-0.500000" width="186.000000" height="10.000000" transform="translate(90.932129 237.930542)" fill="#FFFFFF" fill-opacity="0"/>
		<g clip-path="url(#clip0_4929)">
			<path id="PayAPI" d="M92.6 247.43L91.06 247.43L91.06 240.15L93.93 240.15C95.58 240.15 96.54 241.17 96.54 242.62C96.54 244.07 95.56 245.07 93.89 245.07L92.6 245.07L92.6 247.43ZM109.96 245.77L109.43 247.43L107.78 247.43L110.29 240.15L112.27 240.15L114.78 247.43L113.13 247.43L112.59 245.77L109.96 245.77ZM117.19 247.43L115.65 247.43L115.65 240.15L118.52 240.15C120.17 240.15 121.13 241.17 121.13 242.62C121.13 244.07 120.15 245.07 118.48 245.07L117.19 245.07L117.19 247.43ZM122.13 240.15L123.67 240.15L123.67 247.43L122.13 247.43L122.13 240.15ZM92.6 241.41L92.6 243.83L93.64 243.83C94.52 243.83 94.95 243.34 94.95 242.62C94.95 241.89 94.52 241.41 93.63 241.41L92.6 241.41ZM117.19 241.41L117.19 243.83L118.23 243.83C119.11 243.83 119.54 243.34 119.54 242.62C119.54 241.89 119.11 241.41 118.22 241.41L117.19 241.41ZM111.25 241.82L110.36 244.57L112.2 244.57L111.31 241.82L111.25 241.82ZM100.51 246.67C100.25 247.18 99.73 247.53 98.92 247.53C97.88 247.53 97.11 246.98 97.11 245.9C97.11 244.68 98.08 244.32 99.16 244.22C100.1 244.13 100.48 244.08 100.48 243.73L100.48 243.71C100.48 243.26 100.18 243 99.67 243C99.12 243 98.8 243.27 98.7 243.63L97.3 243.52C97.51 242.53 98.37 241.9 99.67 241.9C100.89 241.9 101.99 242.45 101.99 243.75L101.99 247.43L100.56 247.43L100.56 246.67L100.51 246.67ZM105.93 248.01C105.62 248.9 105.03 249.47 103.9 249.47C103.52 249.47 103.17 249.41 102.95 249.32L103.29 248.19C103.82 248.35 104.2 248.32 104.4 247.81L104.49 247.58L102.53 241.97L104.12 241.97L105.25 245.98L105.31 245.98L106.45 241.97L108.05 241.97L105.93 248.01ZM98.55 245.85C98.55 246.27 98.89 246.49 99.35 246.49C100.02 246.49 100.49 246.05 100.49 245.48L100.49 244.9C100.31 245.02 99.77 245.1 99.44 245.14C98.9 245.22 98.55 245.43 98.55 245.85Z" fill="#BA4270" fill-opacity="1.000000" fill-rule="evenodd"/>
			<g opacity="0.500000" style="mix-blend-mode:normal">
				<path id="Just Now" d="M238.87 245.35L238.87 240.15L239.75 240.15L239.75 245.35C239.75 246.75 238.94 247.53 237.67 247.53C236.48 247.53 235.61 246.84 235.61 245.72L236.48 245.72C236.48 246.34 236.98 246.74 237.67 246.74C238.43 246.74 238.87 246.26 238.87 245.35ZM263.89 240.15L264.76 240.15L264.76 247.43L263.91 247.43L259.95 241.72L259.87 241.72L259.87 247.43L258.99 247.43L258.99 240.15L259.85 240.15L263.82 245.88L263.89 245.88L263.89 240.15ZM253.64 241.97L254.8 241.97L254.8 242.68L253.64 242.68L253.64 245.86C253.64 246.57 253.99 246.69 254.36 246.69C254.55 246.69 254.66 246.66 254.73 246.64L254.9 247.4C254.79 247.44 254.59 247.5 254.28 247.5C253.57 247.5 252.8 247.04 252.8 246.09L252.8 242.68L251.98 242.68L251.98 241.97L252.8 241.97L252.8 240.67L253.64 240.67L253.64 241.97ZM249.13 241.9C250.22 241.9 250.8 242.42 251.07 243.19L250.31 243.41C250.17 243.03 249.87 242.62 249.13 242.62C248.47 242.62 247.97 242.97 247.97 243.43C247.97 243.85 248.26 244.07 248.91 244.23L249.72 244.43C250.69 244.67 251.17 245.15 251.17 245.91C251.17 246.85 250.3 247.54 249.04 247.54C247.92 247.54 247.16 247.05 246.96 246.12L247.76 245.92C247.91 246.51 248.34 246.8 249.02 246.8C249.8 246.8 250.3 246.42 250.3 245.95C250.3 245.57 250.04 245.31 249.49 245.18L248.58 244.97C247.58 244.73 247.13 244.23 247.13 243.48C247.13 242.55 247.98 241.9 249.13 241.9ZM271.1 244.73C271.1 246.42 270.1 247.54 268.62 247.54C267.15 247.54 266.15 246.42 266.15 244.73C266.15 243.02 267.15 241.9 268.62 241.9C270.1 241.9 271.1 243.02 271.1 244.73ZM243.42 246.69C244.05 246.69 244.83 246.22 244.83 245.2L244.83 241.97L245.67 241.97L245.67 247.43L244.83 247.43L244.83 246.5L244.77 246.5C244.52 247.06 243.98 247.5 243.16 247.5C242.13 247.5 241.39 246.83 241.39 245.44L241.39 241.97L242.23 241.97L242.23 245.38C242.23 246.18 242.73 246.69 243.42 246.69ZM274.25 247.43L273.42 247.43L271.76 241.97L272.64 241.97L273.82 246.15L273.88 246.15L275.04 241.97L275.94 241.97L277.09 246.13L277.15 246.13L278.33 241.97L279.21 241.97L277.54 247.43L276.72 247.43L275.53 243.24L275.44 243.24L274.25 247.43ZM266.99 244.73C266.99 245.82 267.5 246.79 268.62 246.79C269.75 246.79 270.26 245.82 270.26 244.73C270.26 243.63 269.75 242.65 268.62 242.65C267.5 242.65 266.99 243.63 266.99 244.73Z" fill="#36536B" fill-opacity="1.000000" fill-rule="evenodd"/>
			</g>
		</g>
		<path id="The payment has been" d="M93.2 256.93L90.91 256.93L90.91 256.15L96.36 256.15L96.36 256.93L94.08 256.93L94.08 263.43L93.2 263.43L93.2 256.93ZM99.89 258.65C99.06 258.65 98.45 259.19 98.45 260.14L98.45 263.43L97.61 263.43L97.61 256.15L98.45 256.15L98.45 258.82L98.52 258.82C98.78 258.26 99.27 257.9 100.13 257.9C101.25 257.9 101.99 258.56 101.99 259.96L101.99 263.43L101.15 263.43L101.15 260.02C101.15 259.15 100.68 258.65 99.89 258.65ZM158.35 258.65C157.53 258.65 156.92 259.19 156.92 260.14L156.92 263.43L156.08 263.43L156.08 256.15L156.92 256.15L156.92 258.82L156.99 258.82C157.25 258.26 157.74 257.9 158.6 257.9C159.71 257.9 160.46 258.56 160.46 259.96L160.46 263.43L159.62 263.43L159.62 260.02C159.62 259.15 159.14 258.65 158.35 258.65ZM176.59 263.43L175.78 263.43L175.78 256.15L176.62 256.15L176.62 258.84L176.69 258.84C176.88 258.55 177.2 257.9 178.27 257.9C179.65 257.9 180.6 258.99 180.6 260.71C180.6 262.45 179.65 263.54 178.28 263.54C177.23 263.54 176.88 262.89 176.69 262.59L176.59 262.59L176.59 263.43ZM249.13 262.59C248.95 262.89 248.59 263.54 247.54 263.54C246.18 263.54 245.23 262.45 245.23 260.71C245.23 258.99 246.18 257.9 247.56 257.9C248.62 257.9 248.95 258.55 249.13 258.84L249.21 258.84L249.21 256.15L250.04 256.15L250.04 263.43L249.23 263.43L249.23 262.59L249.13 262.59ZM259.26 256.93L256.98 256.93L256.98 256.15L262.43 256.15L262.43 256.93L260.14 256.93L260.14 263.43L259.26 263.43L259.26 256.93ZM265.95 258.65C265.13 258.65 264.52 259.19 264.52 260.14L264.52 263.43L263.68 263.43L263.68 256.15L264.52 256.15L264.52 258.82L264.59 258.82C264.84 258.26 265.34 257.9 266.19 257.9C267.31 257.9 268.06 258.56 268.06 259.96L268.06 263.43L267.22 263.43L267.22 260.02C267.22 259.15 266.74 258.65 265.95 258.65ZM150.84 257.97L152 257.97L152 258.68L150.84 258.68L150.84 261.86C150.84 262.57 151.19 262.69 151.56 262.69C151.75 262.69 151.86 262.66 151.93 262.64L152.1 263.4C151.99 263.44 151.79 263.5 151.48 263.5C150.77 263.5 150 263.04 150 262.09L150 258.68L149.18 258.68L149.18 257.97L150 257.97L150 256.67L150.84 256.67L150.84 257.97ZM209.12 263.43L208.28 263.43L208.28 257.97L209.09 257.97L209.09 258.79L209.15 258.79C209.35 258.26 209.92 257.89 210.57 257.89C210.69 257.89 210.91 257.89 211.01 257.9L211.01 258.75C210.95 258.74 210.72 258.7 210.5 258.7C209.7 258.7 209.12 259.24 209.12 259.97L209.12 263.43ZM107.98 262.16C107.73 262.99 106.92 263.54 105.81 263.54C104.23 263.54 103.27 262.42 103.27 260.74C103.27 259.07 104.25 257.9 105.73 257.9C106.86 257.9 108.07 258.6 108.07 260.63L108.07 260.98L104.11 260.98C104.15 262.15 104.83 262.79 105.81 262.79C106.47 262.79 106.96 262.5 107.17 261.93L107.98 262.16ZM113 265.47L112.16 265.47L112.16 257.97L112.97 257.97L112.97 258.84L113.07 258.84C113.25 258.55 113.58 257.9 114.65 257.9C116.02 257.9 116.98 258.99 116.98 260.71C116.98 262.45 116.02 263.54 114.66 263.54C113.61 263.54 113.25 262.89 113.07 262.59L113 262.59L113 265.47ZM121.48 262.69C121.31 263.04 120.81 263.55 119.86 263.55C118.82 263.55 118 262.94 118 261.88C118 260.63 119.1 260.4 120.11 260.27C121.11 260.14 121.52 260.18 121.52 259.78L121.52 259.75C121.52 259.05 121.14 258.64 120.37 258.64C119.57 258.64 119.14 259.07 118.95 259.46L118.15 259.18C118.58 258.18 119.52 257.9 120.34 257.9C121.04 257.9 122.36 258.1 122.36 259.83L122.36 263.43L121.52 263.43L121.52 262.69L121.48 262.69ZM130.1 263.43L129.26 263.43L129.26 257.97L130.07 257.97L130.07 258.82L130.14 258.82C130.37 258.24 130.89 257.9 131.61 257.9C132.32 257.9 132.8 258.24 133.07 258.82L133.13 258.82C133.41 258.26 133.98 257.9 134.76 257.9C135.73 257.9 136.42 258.49 136.42 259.78L136.42 263.43L135.58 263.43L135.58 259.78C135.58 258.97 135.07 258.65 134.47 258.65C133.71 258.65 133.27 259.17 133.27 259.87L133.27 263.43L132.42 263.43L132.42 259.69C132.42 259.07 131.97 258.65 131.34 258.65C130.68 258.65 130.1 259.22 130.1 260.02L130.1 263.43ZM142.42 262.16C142.16 262.99 141.35 263.54 140.24 263.54C138.67 263.54 137.7 262.42 137.7 260.74C137.7 259.07 138.68 257.9 140.16 257.9C141.29 257.9 142.5 258.6 142.5 260.63L142.5 260.98L138.54 260.98C138.58 262.15 139.26 262.79 140.24 262.79C140.9 262.79 141.39 262.5 141.61 261.93L142.42 262.16ZM146.01 258.65C145.21 258.65 144.62 259.19 144.62 260.14L144.62 263.43L143.78 263.43L143.78 257.97L144.59 257.97L144.59 258.82L144.66 258.82C144.92 258.27 145.43 257.9 146.25 257.9C147.36 257.9 148.1 258.57 148.1 259.96L148.1 263.43L147.26 263.43L147.26 260.02C147.26 259.16 146.79 258.65 146.01 258.65ZM165.21 262.69C165.04 263.04 164.55 263.55 163.6 263.55C162.56 263.55 161.73 262.94 161.73 261.88C161.73 260.63 162.84 260.4 163.85 260.27C164.85 260.14 165.26 260.18 165.26 259.78L165.26 259.75C165.26 259.05 164.88 258.64 164.11 258.64C163.31 258.64 162.87 259.07 162.69 259.46L161.89 259.18C162.32 258.18 163.25 257.9 164.08 257.9C164.78 257.9 166.1 258.1 166.1 259.83L166.1 263.43L165.26 263.43L165.26 262.69L165.21 262.69ZM169.56 257.9C170.64 257.9 171.23 258.42 171.49 259.19L170.74 259.41C170.6 259.03 170.29 258.62 169.56 258.62C168.89 258.62 168.4 258.97 168.4 259.43C168.4 259.85 168.69 260.07 169.33 260.23L170.14 260.43C171.12 260.67 171.59 261.15 171.59 261.91C171.59 262.85 170.73 263.54 169.46 263.54C168.35 263.54 167.58 263.04 167.39 262.12L168.18 261.92C168.33 262.51 168.76 262.8 169.45 262.8C170.23 262.8 170.73 262.42 170.73 261.95C170.73 261.57 170.47 261.31 169.92 261.18L169.01 260.97C168 260.73 167.56 260.23 167.56 259.48C167.56 258.55 168.41 257.9 169.56 257.9ZM186.34 262.16C186.08 262.99 185.27 263.54 184.16 263.54C182.59 263.54 181.62 262.42 181.62 260.74C181.62 259.07 182.6 257.9 184.08 257.9C185.21 257.9 186.42 258.6 186.42 260.63L186.42 260.98L182.46 260.98C182.5 262.15 183.18 262.79 184.16 262.79C184.82 262.79 185.31 262.5 185.53 261.93L186.34 262.16ZM192.16 262.16C191.9 262.99 191.1 263.54 189.99 263.54C188.41 263.54 187.44 262.42 187.44 260.74C187.44 259.07 188.43 257.9 189.9 257.9C191.04 257.9 192.25 258.6 192.25 260.63L192.25 260.98L188.29 260.98C188.32 262.15 189 262.79 189.99 262.79C190.64 262.79 191.14 262.5 191.35 261.93L192.16 262.16ZM195.76 258.65C194.95 258.65 194.36 259.19 194.36 260.14L194.36 263.43L193.52 263.43L193.52 257.97L194.33 257.97L194.33 258.82L194.41 258.82C194.66 258.27 195.17 257.9 196 257.9C197.1 257.9 197.84 258.57 197.84 259.96L197.84 263.43L197.01 263.43L197.01 260.02C197.01 259.16 196.53 258.65 195.76 258.65ZM203.03 265.47L202.19 265.47L202.19 257.97L203 257.97L203 258.84L203.1 258.84C203.28 258.55 203.61 257.9 204.67 257.9C206.05 257.9 207.01 258.99 207.01 260.71C207.01 262.45 206.05 263.54 204.69 263.54C203.64 263.54 203.28 262.89 203.1 262.59L203.03 262.59L203.03 265.47ZM216.52 260.73C216.52 262.42 215.53 263.54 214.05 263.54C212.57 263.54 211.58 262.42 211.58 260.73C211.58 259.02 212.57 257.9 214.05 257.9C215.53 257.9 216.52 259.02 216.52 260.73ZM222.16 261.83C222.02 262.8 221.22 263.54 220.02 263.54C218.48 263.54 217.54 262.36 217.54 260.73C217.54 259.07 218.52 257.9 220 257.9C221.15 257.9 222.02 258.58 222.16 259.6L221.32 259.6C221.2 259.11 220.75 258.65 220.02 258.65C219.03 258.65 218.38 259.46 218.38 260.7C218.38 261.96 219.02 262.79 220.02 262.79C220.67 262.79 221.17 262.43 221.32 261.83L222.16 261.83ZM227.84 262.16C227.59 262.99 226.78 263.54 225.67 263.54C224.09 263.54 223.13 262.42 223.13 260.74C223.13 259.07 224.11 257.9 225.58 257.9C226.72 257.9 227.93 258.6 227.93 260.63L227.93 260.98L223.97 260.98C224.01 262.15 224.69 262.79 225.67 262.79C226.33 262.79 226.82 262.5 227.03 261.93L227.84 262.16ZM231.14 257.9C232.22 257.9 232.81 258.42 233.07 259.19L232.32 259.41C232.17 259.03 231.87 258.62 231.14 258.62C230.47 258.62 229.97 258.97 229.97 259.43C229.97 259.85 230.27 260.07 230.91 260.23L231.72 260.43C232.69 260.67 233.17 261.15 233.17 261.91C233.17 262.85 232.31 263.54 231.04 263.54C229.92 263.54 229.16 263.04 228.96 262.12L229.76 261.92C229.91 262.51 230.34 262.8 231.02 262.8C231.81 262.8 232.3 262.42 232.3 261.95C232.3 261.57 232.04 261.31 231.49 261.18L230.59 260.97C229.58 260.73 229.13 260.23 229.13 259.48C229.13 258.55 229.99 257.9 231.14 257.9ZM236.36 257.9C237.45 257.9 238.03 258.42 238.3 259.19L237.54 259.41C237.4 259.03 237.1 258.62 236.36 258.62C235.7 258.62 235.2 258.97 235.2 259.43C235.2 259.85 235.49 260.07 236.14 260.23L236.95 260.43C237.92 260.67 238.4 261.15 238.4 261.91C238.4 262.85 237.53 263.54 236.27 263.54C235.15 263.54 234.39 263.04 234.19 262.12L234.99 261.92C235.14 262.51 235.57 262.8 236.25 262.8C237.03 262.8 237.53 262.42 237.53 261.95C237.53 261.57 237.27 261.31 236.72 261.18L235.81 260.97C234.81 260.73 234.36 260.23 234.36 259.48C234.36 258.55 235.21 257.9 236.36 257.9ZM244.12 262.16C243.86 262.99 243.06 263.54 241.95 263.54C240.37 263.54 239.4 262.42 239.4 260.74C239.4 259.07 240.39 257.9 241.86 257.9C243 257.9 244.21 258.6 244.21 260.63L244.21 260.98L240.25 260.98C240.29 262.15 240.96 262.79 241.95 262.79C242.6 262.79 243.1 262.5 243.31 261.93L244.12 262.16ZM274.05 262.16C273.79 262.99 272.99 263.54 271.88 263.54C270.3 263.54 269.33 262.42 269.33 260.74C269.33 259.07 270.31 257.9 271.79 257.9C272.93 257.9 274.14 258.6 274.14 260.63L274.14 260.98L270.18 260.98C270.21 262.15 270.89 262.79 271.88 262.79C272.53 262.79 273.03 262.5 273.24 261.93L274.05 262.16ZM125.84 264.22C125.52 265.07 124.99 265.47 124.23 265.47C123.95 265.47 123.71 265.42 123.62 265.37L123.84 264.63C124.45 264.79 124.82 264.71 125.13 263.88L125.29 263.46L123.27 257.97L124.18 257.97L125.68 262.32L125.74 262.32L127.25 257.97L128.15 257.97L125.84 264.22ZM105.73 258.65C104.77 258.65 104.17 259.41 104.11 260.26L107.22 260.26C107.22 259.33 106.63 258.65 105.73 258.65ZM114.55 258.65C113.52 258.65 112.99 259.48 112.99 260.7C112.99 261.93 113.54 262.79 114.55 262.79C115.6 262.79 116.14 261.86 116.14 260.7C116.14 259.55 115.61 258.65 114.55 258.65ZM140.16 258.65C139.2 258.65 138.6 259.41 138.54 260.26L141.65 260.26C141.65 259.33 141.07 258.65 140.16 258.65ZM178.17 258.65C177.15 258.65 176.61 259.48 176.61 260.7C176.61 261.93 177.16 262.79 178.17 262.79C179.22 262.79 179.76 261.86 179.76 260.7C179.76 259.55 179.24 258.65 178.17 258.65ZM184.08 258.65C183.12 258.65 182.52 259.41 182.46 260.26L185.57 260.26C185.57 259.33 184.99 258.65 184.08 258.65ZM189.9 258.65C188.94 258.65 188.34 259.41 188.29 260.26L191.39 260.26C191.39 259.33 190.81 258.65 189.9 258.65ZM204.58 258.65C203.55 258.65 203.01 259.48 203.01 260.7C203.01 261.93 203.57 262.79 204.58 262.79C205.63 262.79 206.17 261.86 206.17 260.7C206.17 259.55 205.64 258.65 204.58 258.65ZM212.42 260.73C212.42 261.82 212.93 262.79 214.05 262.79C215.17 262.79 215.68 261.82 215.68 260.73C215.68 259.63 215.17 258.65 214.05 258.65C212.93 258.65 212.42 259.63 212.42 260.73ZM225.58 258.65C224.62 258.65 224.02 259.41 223.97 260.26L227.08 260.26C227.08 259.33 226.49 258.65 225.58 258.65ZM241.86 258.65C240.9 258.65 240.3 259.41 240.25 260.26L243.35 260.26C243.35 259.33 242.77 258.65 241.86 258.65ZM246.07 260.7C246.07 261.86 246.61 262.79 247.66 262.79C248.67 262.79 249.22 261.93 249.22 260.7C249.22 259.48 248.68 258.65 247.66 258.65C246.59 258.65 246.07 259.55 246.07 260.7ZM271.79 258.65C270.83 258.65 270.23 259.41 270.18 260.26L273.28 260.26C273.28 259.33 272.7 258.65 271.79 258.65ZM118.84 261.92C118.84 262.5 119.32 262.8 119.99 262.8C120.98 262.8 121.52 262.13 121.52 261.45L121.52 260.68C121.38 260.85 120.43 260.96 120.07 261C119.42 261.08 118.84 261.28 118.84 261.92ZM162.57 261.92C162.57 262.5 163.06 262.8 163.72 262.8C164.72 262.8 165.26 262.13 165.26 261.45L165.26 260.68C165.11 260.85 164.16 260.96 163.81 261C163.15 261.08 162.57 261.28 162.57 261.92ZM252.94 262.84C252.94 263.19 252.65 263.48 252.3 263.48C251.95 263.48 251.66 263.19 251.66 262.84C251.66 262.49 251.95 262.21 252.3 262.21C252.65 262.21 252.94 262.49 252.94 262.84ZM202.87 271.97L204.09 271.97L204.09 272.68L202.87 272.68L202.87 277.43L202.03 277.43L202.03 272.68L201.15 272.68L201.15 271.97L202.03 271.97L202.03 271.22C202.03 270.28 202.79 269.81 203.57 269.81C203.98 269.81 204.23 269.9 204.36 269.96L204.12 270.68C204.04 270.65 203.89 270.59 203.65 270.59C203.1 270.59 202.87 270.88 202.87 271.42L202.87 271.97ZM110.02 270.15L110.85 270.15L110.85 277.43L110.02 277.43L110.02 270.15ZM157.26 276.59C157.08 276.89 156.72 277.54 155.67 277.54C154.3 277.54 153.35 276.45 153.35 274.71C153.35 272.99 154.3 271.9 155.68 271.9C156.75 271.9 157.08 272.55 157.26 272.84L157.33 272.84L157.33 270.15L158.17 270.15L158.17 277.43L157.36 277.43L157.36 276.59L157.26 276.59ZM169.29 276.59C169.11 276.89 168.75 277.54 167.7 277.54C166.34 277.54 165.38 276.45 165.38 274.71C165.38 272.99 166.34 271.9 167.72 271.9C168.78 271.9 169.11 272.55 169.29 272.84L169.36 272.84L169.36 270.15L170.2 270.15L170.2 277.43L169.39 277.43L169.39 276.59L169.29 276.59ZM196.29 276.59C196.11 276.89 195.75 277.54 194.7 277.54C193.34 277.54 192.39 276.45 192.39 274.71C192.39 272.99 193.34 271.9 194.72 271.9C195.78 271.9 196.11 272.55 196.29 272.84L196.37 272.84L196.37 270.15L197.2 270.15L197.2 277.43L196.39 277.43L196.39 276.59L196.29 276.59ZM92.4 271.97L93.57 271.97L93.57 272.68L92.4 272.68L92.4 275.86C92.4 276.57 92.76 276.69 93.12 276.69C93.31 276.69 93.43 276.66 93.5 276.64L93.67 277.4C93.55 277.44 93.35 277.5 93.04 277.5C92.33 277.5 91.56 277.04 91.56 276.09L91.56 272.68L90.74 272.68L90.74 271.97L91.56 271.97L91.56 270.67L92.4 270.67L92.4 271.97ZM101.95 271.97L103.11 271.97L103.11 272.68L101.95 272.68L101.95 275.86C101.95 276.57 102.3 276.69 102.67 276.69C102.86 276.69 102.97 276.66 103.04 276.64L103.21 277.4C103.1 277.44 102.9 277.5 102.59 277.5C101.88 277.5 101.11 277.04 101.11 276.09L101.11 272.68L100.29 272.68L100.29 271.97L101.11 271.97L101.11 270.67L101.95 270.67L101.95 271.97ZM148.37 271.97L149.53 271.97L149.53 272.68L148.37 272.68L148.37 275.86C148.37 276.57 148.72 276.69 149.09 276.69C149.28 276.69 149.39 276.66 149.46 276.64L149.63 277.4C149.52 277.44 149.32 277.5 149.01 277.5C148.3 277.5 147.53 277.04 147.53 276.09L147.53 272.68L146.71 272.68L146.71 271.97L147.53 271.97L147.53 270.67L148.37 270.67L148.37 271.97ZM184.45 271.97L185.61 271.97L185.61 272.68L184.45 272.68L184.45 275.86C184.45 276.57 184.8 276.69 185.17 276.69C185.36 276.69 185.47 276.66 185.54 276.64L185.71 277.4C185.6 277.44 185.4 277.5 185.09 277.5C184.38 277.5 183.61 277.04 183.61 276.09L183.61 272.68L182.79 272.68L182.79 271.97L183.61 271.97L183.61 270.67L184.45 270.67L184.45 271.97ZM206.11 277.43L205.27 277.43L205.27 271.97L206.08 271.97L206.08 272.79L206.14 272.79C206.34 272.26 206.9 271.89 207.56 271.89C207.68 271.89 207.9 271.89 208 271.9L208 272.75C207.94 272.74 207.71 272.7 207.49 272.7C206.69 272.7 206.11 273.24 206.11 273.97L206.11 277.43ZM244.28 277.43L243.44 277.43L243.44 271.97L244.25 271.97L244.25 272.79L244.31 272.79C244.51 272.26 245.07 271.89 245.73 271.89C245.85 271.89 246.07 271.89 246.17 271.9L246.17 272.75C246.11 272.74 245.88 272.7 245.66 272.7C244.86 272.7 244.28 273.24 244.28 273.97L244.28 277.43ZM99.46 274.73C99.46 276.42 98.47 277.54 96.99 277.54C95.51 277.54 94.52 276.42 94.52 274.73C94.52 273.02 95.51 271.9 96.99 271.9C98.47 271.9 99.46 273.02 99.46 274.73ZM107.6 276.69C107.43 277.04 106.93 277.55 105.98 277.55C104.94 277.55 104.12 276.94 104.12 275.88C104.12 274.63 105.23 274.4 106.24 274.27C107.23 274.14 107.64 274.18 107.64 273.78L107.64 273.75C107.64 273.05 107.26 272.64 106.49 272.64C105.69 272.64 105.26 273.07 105.07 273.46L104.28 273.18C104.7 272.18 105.64 271.9 106.46 271.9C107.16 271.9 108.48 272.1 108.48 273.83L108.48 277.43L107.64 277.43L107.64 276.69L107.6 276.69ZM118.43 276.69C118.25 277.04 117.76 277.55 116.81 277.55C115.77 277.55 114.94 276.94 114.94 275.88C114.94 274.63 116.05 274.4 117.06 274.27C118.06 274.14 118.47 274.18 118.47 273.78L118.47 273.75C118.47 273.05 118.09 272.64 117.32 272.64C116.52 272.64 116.08 273.07 115.9 273.46L115.1 273.18C115.53 272.18 116.46 271.9 117.29 271.9C117.99 271.9 119.31 272.1 119.31 273.83L119.31 277.43L118.47 277.43L118.47 276.69L118.43 276.69ZM121.68 277.43L120.84 277.43L120.84 271.97L121.65 271.97L121.65 272.82L121.72 272.82C121.95 272.24 122.47 271.9 123.18 271.9C123.9 271.9 124.38 272.24 124.65 272.82L124.7 272.82C124.98 272.26 125.56 271.9 126.34 271.9C127.31 271.9 128 272.49 128 273.78L128 277.43L127.16 277.43L127.16 273.78C127.16 272.97 126.65 272.65 126.05 272.65C125.28 272.65 124.85 273.17 124.85 273.87L124.85 277.43L123.99 277.43L123.99 273.69C123.99 273.07 123.55 272.65 122.91 272.65C122.26 272.65 121.68 273.22 121.68 274.02L121.68 277.43ZM134.22 274.73C134.22 276.42 133.23 277.54 131.75 277.54C130.27 277.54 129.28 276.42 129.28 274.73C129.28 273.02 130.27 271.9 131.75 271.9C133.23 271.9 134.22 273.02 134.22 274.73ZM143.54 272.65C142.74 272.65 142.14 273.19 142.14 274.14L142.14 277.43L141.31 277.43L141.31 271.97L142.12 271.97L142.12 272.82L142.19 272.82C142.45 272.27 142.96 271.9 143.78 271.9C144.88 271.9 145.63 272.57 145.63 273.96L145.63 277.43L144.79 277.43L144.79 274.02C144.79 273.16 144.32 272.65 143.54 272.65ZM164.28 276.16C164.02 276.99 163.21 277.54 162.1 277.54C160.53 277.54 159.56 276.42 159.56 274.74C159.56 273.07 160.54 271.9 162.02 271.9C163.15 271.9 164.36 272.6 164.36 274.63L164.36 274.98L160.4 274.98C160.44 276.15 161.12 276.79 162.1 276.79C162.76 276.79 163.25 276.5 163.47 275.93L164.28 276.16ZM182.02 275.83C181.88 276.8 181.08 277.54 179.87 277.54C178.34 277.54 177.4 276.36 177.4 274.73C177.4 273.07 178.38 271.9 179.86 271.9C181.01 271.9 181.88 272.58 182.02 273.6L181.18 273.6C181.05 273.11 180.61 272.65 179.87 272.65C178.89 272.65 178.24 273.46 178.24 274.7C178.24 275.96 178.88 276.79 179.87 276.79C180.53 276.79 181.02 276.43 181.18 275.83L182.02 275.83ZM191.28 276.16C191.02 276.99 190.22 277.54 189.11 277.54C187.53 277.54 186.56 276.42 186.56 274.74C186.56 273.07 187.54 271.9 189.02 271.9C190.16 271.9 191.37 272.6 191.37 274.63L191.37 274.98L187.41 274.98C187.44 276.15 188.12 276.79 189.11 276.79C189.76 276.79 190.26 276.5 190.47 275.93L191.28 276.16ZM213.51 274.73C213.51 276.42 212.52 277.54 211.04 277.54C209.56 277.54 208.57 276.42 208.57 274.73C208.57 273.02 209.56 271.9 211.04 271.9C212.52 271.9 213.51 273.02 213.51 274.73ZM215.63 277.43L214.79 277.43L214.79 271.97L215.6 271.97L215.6 272.82L215.67 272.82C215.9 272.24 216.42 271.9 217.13 271.9C217.85 271.9 218.33 272.24 218.59 272.82L218.65 272.82C218.93 272.26 219.5 271.9 220.29 271.9C221.26 271.9 221.95 272.49 221.95 273.78L221.95 277.43L221.11 277.43L221.11 273.78C221.11 272.97 220.6 272.65 220 272.65C219.23 272.65 218.79 273.17 218.79 273.87L218.79 277.43L217.94 277.43L217.94 273.69C217.94 273.07 217.5 272.65 216.86 272.65C216.21 272.65 215.63 273.22 215.63 274.02L215.63 277.43ZM236.35 274.73C236.35 276.42 235.36 277.54 233.88 277.54C232.4 277.54 231.41 276.42 231.41 274.73C231.41 273.02 232.4 271.9 233.88 271.9C235.36 271.9 236.35 273.02 236.35 274.73ZM137.53 276.69C138.15 276.69 138.94 276.22 138.94 275.2L138.94 271.97L139.77 271.97L139.77 277.43L138.94 277.43L138.94 276.5L138.88 276.5C138.62 277.06 138.08 277.5 137.26 277.5C136.24 277.5 135.5 276.83 135.5 275.44L135.5 271.97L136.34 271.97L136.34 275.38C136.34 276.18 136.83 276.69 137.53 276.69ZM173.88 276.69C174.5 276.69 175.29 276.22 175.29 275.2L175.29 271.97L176.12 271.97L176.12 277.43L175.29 277.43L175.29 276.5L175.23 276.5C174.97 277.06 174.43 277.5 173.61 277.5C172.59 277.5 171.85 276.83 171.85 275.44L171.85 271.97L172.69 271.97L172.69 275.38C172.69 276.18 173.18 276.69 173.88 276.69ZM228.44 278.22C228.12 279.07 227.59 279.47 226.83 279.47C226.55 279.47 226.31 279.42 226.22 279.37L226.44 278.63C227.05 278.79 227.42 278.71 227.73 277.88L227.89 277.46L225.87 271.97L226.78 271.97L228.28 276.32L228.34 276.32L229.85 271.97L230.75 271.97L228.44 278.22ZM239.66 276.69C240.29 276.69 241.07 276.22 241.07 275.2L241.07 271.97L241.9 271.97L241.9 277.43L241.07 277.43L241.07 276.5L241.01 276.5C240.75 277.06 240.21 277.5 239.39 277.5C238.37 277.5 237.63 276.83 237.63 275.44L237.63 271.97L238.47 271.97L238.47 275.38C238.47 276.18 238.96 276.69 239.66 276.69ZM95.36 274.73C95.36 275.82 95.87 276.79 96.99 276.79C98.11 276.79 98.62 275.82 98.62 274.73C98.62 273.63 98.11 272.65 96.99 272.65C95.87 272.65 95.36 273.63 95.36 274.73ZM130.12 274.73C130.12 275.82 130.63 276.79 131.75 276.79C132.87 276.79 133.38 275.82 133.38 274.73C133.38 273.63 132.87 272.65 131.75 272.65C130.63 272.65 130.12 273.63 130.12 274.73ZM154.19 274.7C154.19 275.86 154.73 276.79 155.78 276.79C156.79 276.79 157.34 275.93 157.34 274.7C157.34 273.48 156.8 272.65 155.78 272.65C154.72 272.65 154.19 273.55 154.19 274.7ZM162.02 272.65C161.06 272.65 160.46 273.41 160.4 274.26L163.51 274.26C163.51 273.33 162.93 272.65 162.02 272.65ZM166.22 274.7C166.22 275.86 166.76 276.79 167.81 276.79C168.82 276.79 169.38 275.93 169.38 274.7C169.38 273.48 168.84 272.65 167.81 272.65C166.75 272.65 166.22 273.55 166.22 274.7ZM189.02 272.65C188.06 272.65 187.46 273.41 187.41 274.26L190.51 274.26C190.51 273.33 189.93 272.65 189.02 272.65ZM193.23 274.7C193.23 275.86 193.77 276.79 194.82 276.79C195.82 276.79 196.38 275.93 196.38 274.7C196.38 273.48 195.84 272.65 194.82 272.65C193.75 272.65 193.23 273.55 193.23 274.7ZM209.41 274.73C209.41 275.82 209.92 276.79 211.04 276.79C212.16 276.79 212.67 275.82 212.67 274.73C212.67 273.63 212.16 272.65 211.04 272.65C209.92 272.65 209.41 273.63 209.41 274.73ZM232.25 274.73C232.25 275.82 232.76 276.79 233.88 276.79C235 276.79 235.51 275.82 235.51 274.73C235.51 273.63 235 272.65 233.88 272.65C232.76 272.65 232.25 273.63 232.25 274.73ZM104.96 275.92C104.96 276.5 105.44 276.8 106.11 276.8C107.1 276.8 107.64 276.13 107.64 275.45L107.64 274.68C107.5 274.85 106.55 274.96 106.19 275C105.54 275.08 104.96 275.28 104.96 275.92ZM115.78 275.92C115.78 276.5 116.27 276.8 116.93 276.8C117.93 276.8 118.47 276.13 118.47 275.45L118.47 274.68C118.32 274.85 117.37 274.96 117.02 275C116.36 275.08 115.78 275.28 115.78 275.92ZM161 292.33L160.42 292.33L160.42 291.52C158.83 291.43 157.82 290.63 157.78 289.14L159.27 289.14C159.32 289.78 159.77 290.15 160.42 290.22L160.42 288.35L159.96 288.24C158.73 287.94 157.97 287.33 157.98 286.26C157.97 285.02 158.99 284.18 160.42 284.07L160.42 283.24L161 283.24L161 284.06C162.47 284.16 163.42 285.02 163.44 286.25L161.97 286.25C161.92 285.75 161.57 285.43 161 285.36L161 287.13L161.36 287.21C162.62 287.5 163.53 288.14 163.54 289.35C163.53 290.6 162.61 291.43 161 291.52L161 292.33ZM133.1 284.49C133.1 284.81 132.83 285.06 132.5 285.06C132.17 285.06 131.9 284.81 131.9 284.49C131.9 284.18 132.17 283.93 132.5 283.93C132.83 283.93 133.1 284.18 133.1 284.49ZM185.7 286.57C185.69 285.11 186.79 284.04 188.42 284.05C189.91 284.06 191.32 284.97 191.32 287.6C191.33 290.07 190.17 291.53 188.36 291.53C186.91 291.53 185.91 290.6 185.77 289.37L187.29 289.37C187.41 289.9 187.81 290.21 188.36 290.21C189.31 290.21 189.81 289.33 189.82 287.89L189.77 287.89C189.44 288.53 188.73 288.92 187.93 288.92C186.64 288.92 185.7 287.93 185.7 286.57ZM154.57 286.25L153.1 286.25C153.04 285.67 152.59 285.34 151.86 285.34C151.1 285.34 150.69 285.68 150.69 286.15C150.68 286.68 151.21 286.91 151.84 287.05L152.49 287.21C153.75 287.5 154.67 288.14 154.67 289.35C154.67 290.68 153.62 291.53 151.85 291.53C150.08 291.53 148.96 290.72 148.92 289.14L150.41 289.14C150.46 289.87 151.03 290.24 151.83 290.24C152.61 290.24 153.12 289.88 153.12 289.35C153.12 288.85 152.67 288.63 151.88 288.44L151.09 288.24C149.86 287.94 149.11 287.33 149.11 286.26C149.1 284.93 150.27 284.05 151.87 284.05C153.48 284.05 154.55 284.95 154.57 286.25ZM175.21 287.79C175.2 290.19 174.1 291.58 172.27 291.58C170.44 291.58 169.33 290.19 169.33 287.79C169.34 285.41 170.45 284.05 172.27 284.05C174.09 284.05 175.21 285.42 175.21 287.79ZM198.18 287.79C198.17 290.19 197.07 291.58 195.24 291.58C193.41 291.58 192.3 290.19 192.3 287.79C192.31 285.41 193.41 284.05 195.24 284.05C197.06 284.05 198.18 285.42 198.18 287.79ZM146.35 288.75L146.35 284.15L147.89 284.15L147.89 288.88C147.89 290.47 146.68 291.53 144.87 291.53C143.06 291.53 141.86 290.47 141.86 288.88L141.86 284.15L143.4 284.15L143.4 288.75C143.4 289.57 143.98 290.18 144.87 290.18C145.77 290.18 146.35 289.57 146.35 288.75ZM166.24 284.15L167.69 284.15L167.69 291.43L166.15 291.43L166.15 285.61L166.11 285.61L164.44 286.66L164.44 285.29L166.24 284.15ZM179.68 290.15L176.19 290.15L176.19 288.94L179.23 284.15L181.15 284.15L181.15 288.92L182.05 288.92L182.05 290.15L181.15 290.15L181.15 291.43L179.68 291.43L179.68 290.15ZM126.83 285.97L128 285.97L128 286.68L126.83 286.68L126.83 289.86C126.83 290.57 127.19 290.69 127.56 290.69C127.74 290.69 127.86 290.66 127.93 290.64L128.1 291.4C127.98 291.44 127.79 291.5 127.47 291.5C126.76 291.5 125.99 291.04 125.99 290.09L125.99 286.68L125.17 286.68L125.17 285.97L125.99 285.97L125.99 284.67L126.83 284.67L126.83 285.97ZM189.66 286.53C189.66 285.84 189.13 285.26 188.43 285.26C187.71 285.26 187.19 285.82 187.19 286.53C187.2 287.25 187.7 287.8 188.41 287.8C189.12 287.8 189.67 287.22 189.66 286.53ZM170.9 287.79C170.9 289.47 171.44 290.31 172.27 290.31C173.1 290.31 173.64 289.47 173.64 287.79C173.64 286.15 173.1 285.32 172.27 285.32C171.44 285.32 170.9 286.15 170.9 287.79ZM193.87 287.79C193.87 289.47 194.41 290.31 195.24 290.31C196.07 290.31 196.61 289.47 196.61 287.79C196.61 286.15 196.07 285.32 195.24 285.32C194.41 285.32 193.87 286.15 193.87 287.79ZM159.55 286.15C159.54 286.59 159.92 286.83 160.42 286.98L160.42 285.36C159.86 285.44 159.55 285.75 159.55 286.15ZM177.74 288.92L179.71 288.92L179.71 285.83L179.65 285.83L177.74 288.86L177.74 288.92ZM94.42 290.69C94.25 291.04 93.75 291.55 92.8 291.55C91.76 291.55 90.94 290.94 90.94 289.88C90.94 288.63 92.04 288.4 93.05 288.27C94.05 288.14 94.46 288.18 94.46 287.78L94.46 287.75C94.46 287.05 94.08 286.64 93.31 286.64C92.51 286.64 92.08 287.07 91.89 287.46L91.09 287.18C91.52 286.18 92.46 285.9 93.28 285.9C93.98 285.9 95.3 286.1 95.3 287.83L95.3 291.43L94.46 291.43L94.46 290.69L94.42 290.69ZM101.19 289.83C101.05 290.8 100.26 291.54 99.05 291.54C97.51 291.54 96.58 290.36 96.58 288.73C96.58 287.07 97.56 285.9 99.04 285.9C100.19 285.9 101.05 286.58 101.19 287.6L100.36 287.6C100.23 287.11 99.79 286.65 99.05 286.65C98.07 286.65 97.42 287.46 97.42 288.7C97.42 289.96 98.06 290.79 99.05 290.79C99.7 290.79 100.2 290.43 100.36 289.83L101.19 289.83ZM106.78 289.83C106.63 290.8 105.84 291.54 104.63 291.54C103.1 291.54 102.16 290.36 102.16 288.73C102.16 287.07 103.14 285.9 104.62 285.9C105.77 285.9 106.63 286.58 106.78 287.6L105.94 287.6C105.81 287.11 105.37 286.65 104.63 286.65C103.65 286.65 103 287.46 103 288.7C103 289.96 103.64 290.79 104.63 290.79C105.28 290.79 105.78 290.43 105.94 289.83L106.78 289.83ZM112.69 288.73C112.69 290.42 111.69 291.54 110.22 291.54C108.74 291.54 107.74 290.42 107.74 288.73C107.74 287.02 108.74 285.9 110.22 285.9C111.69 285.9 112.69 287.02 112.69 288.73ZM122.01 286.65C121.2 286.65 120.61 287.19 120.61 288.14L120.61 291.43L119.77 291.43L119.77 285.97L120.58 285.97L120.58 286.82L120.66 286.82C120.91 286.27 121.42 285.9 122.25 285.9C123.35 285.9 124.09 286.57 124.09 287.96L124.09 291.43L123.26 291.43L123.26 288.02C123.26 287.16 122.78 286.65 122.01 286.65ZM136.38 285.9C137.46 285.9 138.05 286.42 138.31 287.19L137.56 287.41C137.41 287.03 137.11 286.62 136.38 286.62C135.71 286.62 135.21 286.97 135.21 287.43C135.21 287.85 135.51 288.07 136.15 288.23L136.96 288.43C137.94 288.67 138.41 289.15 138.41 289.91C138.41 290.85 137.55 291.54 136.28 291.54C135.16 291.54 134.4 291.04 134.21 290.12L135 289.92C135.15 290.51 135.58 290.8 136.27 290.8C137.05 290.8 137.55 290.42 137.55 289.95C137.55 289.57 137.28 289.31 136.73 289.18L135.83 288.97C134.82 288.73 134.38 288.23 134.38 287.48C134.38 286.55 135.23 285.9 136.38 285.9ZM116 290.69C116.62 290.69 117.4 290.22 117.4 289.2L117.4 285.97L118.24 285.97L118.24 291.43L117.4 291.43L117.4 290.5L117.35 290.5C117.09 291.06 116.55 291.5 115.73 291.5C114.7 291.5 113.96 290.83 113.96 289.44L113.96 285.97L114.8 285.97L114.8 289.38C114.8 290.18 115.3 290.69 116 290.69ZM132.91 291.43L132.07 291.43L132.07 285.97L132.91 285.97L132.91 291.43ZM108.58 288.73C108.58 289.82 109.09 290.79 110.22 290.79C111.34 290.79 111.85 289.82 111.85 288.73C111.85 287.63 111.34 286.65 110.22 286.65C109.09 286.65 108.58 287.63 108.58 288.73ZM161 288.5L161 290.22C161.61 290.14 161.98 289.8 161.99 289.35C161.98 288.91 161.64 288.68 161 288.5ZM91.78 289.92C91.78 290.5 92.26 290.8 92.93 290.8C93.92 290.8 94.46 290.13 94.46 289.45L94.46 288.68C94.32 288.85 93.37 288.96 93.01 289C92.36 289.08 91.78 289.28 91.78 289.92ZM184.7 290.67C184.69 291.14 184.3 291.52 183.84 291.52C183.37 291.52 182.99 291.14 182.99 290.67C182.99 290.2 183.37 289.82 183.84 289.82C184.3 289.82 184.69 290.2 184.7 290.67ZM200.7 290.84C200.7 291.19 200.41 291.48 200.06 291.48C199.71 291.48 199.42 291.19 199.42 290.84C199.42 290.49 199.71 290.21 200.06 290.21C200.41 290.21 200.7 290.49 200.7 290.84Z" fill="#36536B" fill-opacity="1.000000" fill-rule="evenodd"/>
	</g>
	<rect id="Group 29" width="218.000000" height="87.000000" transform="translate(74.432129 221.430542)" stroke="#979797" stroke-opacity="1.000000" stroke-width="1.000000"/>
</svg>
