<svg width="315.765381" height="459.316650" viewBox="0 0 315.765 459.317" fill="none" xmlns="http://www.w3.org/2000/svg" xmlns:xlink="http://www.w3.org/1999/xlink">
	<desc>
			Created with Pixso.
	</desc>
	<defs>
		<filter id="filter_0_2415_dd" x="0.000000" y="0.000000" width="315.765381" height="459.316650" filterUnits="userSpaceOnUse" color-interpolation-filters="sRGB">
			<feFlood flood-opacity="0" result="BackgroundImageFix"/>
			<feColorMatrix in="SourceAlpha" type="matrix" values="0 0 0 0 0 0 0 0 0 0 0 0 0 0 0 0 0 0 127 0" result="hardAlpha"/>
			<feOffset dx="25" dy="25"/>
			<feGaussianBlur stdDeviation="26.6667"/>
			<feComposite in2="hardAlpha" operator="out" k2="-1" k3="1"/>
			<feColorMatrix type="matrix" values="0 0 0 0 0.21176 0 0 0 0 0.32549 0 0 0 0 0.41961 0 0 0 0.3 0"/>
			<feBlend mode="normal" in2="BackgroundImageFix" result="effect_dropShadow_1"/>
			<feBlend mode="normal" in="SourceGraphic" in2="effect_dropShadow_1" result="shape"/>
		</filter>
		<filter id="filter_0_2437_dd" x="61.252930" y="149.658325" width="161.255127" height="83.191528" filterUnits="userSpaceOnUse" color-interpolation-filters="sRGB">
			<feFlood flood-opacity="0" result="BackgroundImageFix"/>
			<feColorMatrix in="SourceAlpha" type="matrix" values="0 0 0 0 0 0 0 0 0 0 0 0 0 0 0 0 0 0 127 0" result="hardAlpha"/>
			<feMorphology radius="-10" in="" result="BackgroundImageFix"/>
			<feOffset dx="10" dy="10"/>
			<feGaussianBlur stdDeviation="8.33333"/>
			<feComposite in2="hardAlpha" operator="out" k2="-1" k3="1"/>
			<feColorMatrix type="matrix" values="0 0 0 0 0.21176 0 0 0 0 0.32549 0 0 0 0 0.41961 0 0 0 0.25 0"/>
			<feBlend mode="normal" in2="BackgroundImageFix" result="effect_dropShadow_1"/>
			<feBlend mode="normal" in="SourceGraphic" in2="effect_dropShadow_1" result="shape"/>
		</filter>
		<clipPath id="clip0_2436">
			<rect id="Group 29" rx="-0.500000" width="131.000000" height="53.000000" transform="translate(66.752930 155.158325)" fill="white" fill-opacity="0"/>
		</clipPath>
		<linearGradient x1="59.501957" y1="54.658325" x2="59.501957" y2="62.052692" id="paint_linear_0_2417_0" gradientUnits="userSpaceOnUse">
			<stop stop-color="#454545"/>
			<stop offset="0.226279" stop-color="#999999"/>
			<stop offset="1.000000" stop-color="#FFFFFF"/>
		</linearGradient>
		<linearGradient x1="210.696411" y1="106.105995" x2="204.976669" y2="106.105995" id="paint_linear_0_2418_0" gradientUnits="userSpaceOnUse">
			<stop stop-color="#FFFFFF" stop-opacity="0.000000"/>
			<stop offset="0.222178" stop-color="#BABABA"/>
			<stop offset="0.546780" stop-color="#FFFFFF" stop-opacity="0.000000"/>
			<stop offset="1.000000" stop-color="#FFFFFF" stop-opacity="0.000000"/>
		</linearGradient>
		<linearGradient x1="54.999878" y1="105.949799" x2="60.728756" y2="105.949799" id="paint_linear_0_2419_0" gradientUnits="userSpaceOnUse">
			<stop stop-color="#FFFFFF" stop-opacity="0.000000"/>
			<stop offset="0.222178" stop-color="#BABABA"/>
			<stop offset="0.546780" stop-color="#FFFFFF" stop-opacity="0.000000"/>
			<stop offset="1.000000" stop-color="#FFFFFF" stop-opacity="0.000000"/>
		</linearGradient>
		<linearGradient x1="62.996368" y1="61.658325" x2="62.996368" y2="338.486267" id="paint_linear_0_2426_0" gradientUnits="userSpaceOnUse">
			<stop stop-color="#9CB6CD"/>
			<stop offset="0.420564" stop-color="#9AB3CA"/>
			<stop offset="0.716592" stop-color="#557496"/>
			<stop offset="1.000000" stop-color="#475178"/>
		</linearGradient>
	</defs>
	<g filter="url(#filter_0_2415_dd)">
		<path id="body" d="M75.07 55L190.68 55C201.77 55 210.76 63.54 210.76 74.07L210.76 335.23C210.76 345.77 201.77 354.31 190.68 354.31L75.07 354.31C63.98 354.31 55 345.77 55 335.23L55 74.07C55 63.54 63.98 55 75.07 55Z" fill="#213648" fill-opacity="1.000000" fill-rule="evenodd"/>
		<path id="body" d="M190.68 55C201.77 55 210.76 63.54 210.76 74.07L210.76 335.23C210.76 345.77 201.77 354.31 190.68 354.31L75.07 354.31C63.98 354.31 55 345.77 55 335.23L55 74.07C55 63.54 63.98 55 75.07 55L190.68 55Z" stroke="#979797" stroke-opacity="0" stroke-width="0.000000"/>
	</g>
	<g opacity="0.595562" style="mix-blend-mode:normal">
		<path id="reflect-frame-top" d="M191.13 54.65L74.56 54.65C69.11 54.98 64.09 57.45 59.5 62.05C62.45 59.49 67.73 56.06 74.7 56.06C74.7 56.06 186.34 56.06 190.99 56.06C197.96 56.06 203.23 59.49 206.19 62.05C201.59 57.45 196.57 54.98 191.13 54.65Z" fill="url(#paint_linear_0_2417_0)" fill-opacity="0.650000" fill-rule="evenodd"/>
	</g>
	<g opacity="0.750000" style="mix-blend-mode:normal">
		<path id="reflect-frame-right" d="M207.61 332.26L207.61 75.64C207.61 68.76 205.06 66.21 203.54 64.58C202.01 62.94 201.95 62.11 204.14 63.34C206.32 64.58 210.69 68.17 210.69 75.64L210.69 332.26C210.69 339.73 206.32 343.32 204.14 344.56C201.95 345.79 202.01 344.96 203.54 343.32C205.06 341.69 207.61 339.14 207.61 332.26Z" fill="url(#paint_linear_0_2418_0)" fill-opacity="1.000000" fill-rule="evenodd"/>
		<path id="reflect-frame-right" d="M207.61 75.64C207.61 68.76 205.06 66.21 203.54 64.58C202.01 62.94 201.95 62.11 204.14 63.34C206.32 64.58 210.69 68.17 210.69 75.64L210.69 332.26C210.69 339.73 206.32 343.32 204.14 344.56C201.95 345.79 202.01 344.96 203.54 343.32C205.06 341.69 207.61 339.14 207.61 332.26L207.61 75.64Z" stroke="#979797" stroke-opacity="0" stroke-width="0.000000"/>
	</g>
	<g opacity="0.750000" style="mix-blend-mode:normal">
		<path id="reflect-frame-left" d="M58.08 332.26L58.08 75.64C58.08 68.76 60.63 66.21 62.15 64.58C63.67 62.94 63.74 62.11 61.55 63.34C59.37 64.58 55 68.17 55 75.64L55 332.26C55 339.73 59.37 343.32 61.55 344.56C63.74 345.79 63.67 344.96 62.15 343.32C60.63 341.69 58.08 339.14 58.08 332.26Z" fill="url(#paint_linear_0_2419_0)" fill-opacity="1.000000" fill-rule="evenodd"/>
		<path id="reflect-frame-left" d="M58.08 75.64C58.08 68.76 60.63 66.21 62.15 64.58C63.67 62.94 63.74 62.11 61.55 63.34C59.37 64.58 55 68.17 55 75.64L55 332.26C55 339.73 59.37 343.32 61.55 344.56C63.74 345.79 63.67 344.96 62.15 343.32C60.63 341.69 58.08 339.14 58.08 332.26L58.08 75.64Z" stroke="#979797" stroke-opacity="0" stroke-width="0.000000"/>
	</g>
	<path id="vol+" d="M53.44 117.09C53.44 116.26 54.11 115.59 54.94 115.59C55.77 115.59 56.44 116.26 56.44 117.09L56.44 152.7C56.44 153.53 55.77 154.2 54.94 154.2C54.11 154.2 53.44 153.53 53.44 152.7L53.44 117.09Z" fill="#2E423C" fill-opacity="1.000000" fill-rule="evenodd"/>
	<path id="power" d="M209.14 148.58C209.14 147.75 209.81 147.08 210.64 147.08C211.47 147.08 212.14 147.75 212.14 148.58L212.14 173.75C212.14 174.58 211.47 175.25 210.64 175.25C209.81 175.25 209.14 174.58 209.14 173.75L209.14 148.58Z" fill="#2E423C" fill-opacity="1.000000" fill-rule="evenodd"/>
	<path id="Screen Mask" d="M119.14 62.12L74.16 62.12C67.45 62.12 62.56 66.66 62.56 72.58L62.56 326.02C62.56 333.75 70.11 340.59 78.66 340.59L187.08 340.59C195.31 340.59 203.18 333.69 203.18 326.02L203.18 73.27C203.18 66.17 197.87 62.16 191.58 62.12L145.88 62.12C145.71 62.15 142.57 63.43 141.24 66.66C139.92 69.89 137.25 72.46 134.33 72.46L130.93 72.46C129.54 72.46 125.88 71.12 124.03 66.66C122.18 62.19 119.32 62.15 119.14 62.12Z" fill="#FFFFFF" fill-opacity="1.000000" fill-rule="evenodd"/>
	<path id="Screen Mask" d="M74.16 62.12C67.45 62.12 62.56 66.66 62.56 72.58L62.56 326.02C62.56 333.75 70.11 340.59 78.66 340.59L187.08 340.59C195.31 340.59 203.18 333.69 203.18 326.02L203.18 73.27C203.18 66.17 197.87 62.16 191.58 62.12L145.88 62.12C145.71 62.15 142.57 63.43 141.24 66.66C139.92 69.89 137.25 72.46 134.33 72.46L130.93 72.46C129.54 72.46 125.88 71.12 124.03 66.66C122.18 62.19 119.32 62.15 119.14 62.12L74.16 62.12Z" stroke="#979797" stroke-opacity="0" stroke-width="0.000000"/>
	<mask id="mask0_2424" mask-type="alpha" maskUnits="userSpaceOnUse" x="62.560791" y="62.125000" width="140.628174" height="278.473755">
		<path id="Screen Mask" d="M119.14 62.12L74.16 62.12C67.45 62.12 62.56 66.66 62.56 72.58L62.56 326.02C62.56 333.75 70.11 340.59 78.66 340.59L187.08 340.59C195.31 340.59 203.18 333.69 203.18 326.02L203.18 73.27C203.18 66.17 197.87 62.16 191.58 62.12L145.88 62.12C145.71 62.15 142.57 63.43 141.24 66.66C139.92 69.89 137.25 72.46 134.33 72.46L130.93 72.46C129.54 72.46 125.88 71.12 124.03 66.66C122.18 62.19 119.32 62.15 119.14 62.12Z" fill="#FFFFFF" fill-opacity="1.000000" fill-rule="evenodd"/>
		<path id="Screen Mask" d="M74.16 62.12C67.45 62.12 62.56 66.66 62.56 72.58L62.56 326.02C62.56 333.75 70.11 340.59 78.66 340.59L187.08 340.59C195.31 340.59 203.18 333.69 203.18 326.02L203.18 73.27C203.18 66.17 197.87 62.16 191.58 62.12L145.88 62.12C145.71 62.15 142.57 63.43 141.24 66.66C139.92 69.89 137.25 72.46 134.33 72.46L130.93 72.46C129.54 72.46 125.88 71.12 124.03 66.66C122.18 62.19 119.32 62.15 119.14 62.12L74.16 62.12Z" stroke="#979797" stroke-opacity="0" stroke-width="0.000000"/>
	</mask>
	<g mask="url(#mask0_2424)">
		<rect id="Rectangle" x="62.447510" y="61.658325" width="141.000000" height="279.000000" fill="url(#paint_linear_0_2426_0)" fill-opacity="1.000000"/>
		<rect id="Rectangle" x="62.447510" y="61.658325" width="141.000000" height="279.000000" stroke="#979797" stroke-opacity="0" stroke-width="0.000000"/>
	</g>
	<g mask="url(#mask0_2424)">
		<path id="12:49" d="M113.445 138.658L113.445 124.777L111.568 124.777Q111.522 125.178 111.34 125.503L111.34 125.503Q111.252 125.66 111.133 125.799Q110.765 126.226 110.025 126.452Q109.285 126.678 108.086 126.678L108.086 128.262L110.581 128.262L110.581 138.658L113.445 138.658ZM126.9 138.658L126.9 136.297L119.771 136.297L119.771 136.172C119.771 135.75 119.9 135.388 120.158 135.087Q120.544 134.636 121.183 134.276C121.609 134.036 122.074 133.801 122.581 133.57C123.087 133.34 123.595 133.09 124.104 132.822C124.614 132.553 125.081 132.239 125.507 131.881Q125.745 131.68 125.949 131.448Q126.29 131.06 126.532 130.585C126.79 130.079 126.919 129.478 126.919 128.78C126.919 127.942 126.713 127.209 126.3 126.582Q126.204 126.436 126.095 126.3Q125.505 125.559 124.544 125.113Q123.408 124.585 121.841 124.585Q120.012 124.585 118.803 125.218Q117.844 125.721 117.265 126.505Q117.115 126.709 116.99 126.932Q116.855 127.172 116.75 127.424Q116.381 128.306 116.366 129.337L119.064 129.337Q119.228 128.19 119.889 127.586Q119.93 127.549 119.974 127.513Q120.18 127.343 120.411 127.221Q121.005 126.908 121.763 126.908C122.44 126.908 122.974 127.084 123.364 127.436Q123.606 127.654 123.748 127.924Q123.949 128.309 123.949 128.799C123.949 129.234 123.817 129.612 123.553 129.932Q123.156 130.412 122.503 130.801C122.068 131.06 121.589 131.318 121.067 131.574Q120.283 131.958 119.505 132.39C118.986 132.678 118.508 133.012 118.073 133.393C117.638 133.774 117.288 134.222 117.023 134.737Q116.627 135.51 116.627 136.566L116.627 138.658L126.9 138.658ZM131.872 131.977L131.872 128.972L128.776 128.972L128.776 131.977L131.872 131.977ZM131.872 138.601L131.872 135.606L128.776 135.606L128.776 138.601L131.872 138.601ZM143.015 138.658L143.015 135.586L145.172 135.586L145.172 133.234L143.015 133.234L143.015 124.777L140.239 124.777L133.864 133.282L133.864 135.586L140.306 135.586L140.297 138.658L143.015 138.658ZM140.306 133.234L140.306 128.146L136.476 133.234L140.306 133.234ZM151.711 138.87C152.936 138.87 153.99 138.596 154.874 138.049C155.758 137.502 156.436 136.676 156.91 135.572Q157.621 133.916 157.621 131.43C157.621 130.041 157.391 128.833 156.929 127.806Q156.389 126.601 155.482 125.825Q155.229 125.608 154.947 125.425C154.086 124.865 153.062 124.585 151.875 124.585C150.818 124.585 149.896 124.786 149.109 125.19C148.322 125.593 147.709 126.15 147.271 126.86C146.833 127.57 146.613 128.38 146.613 129.289Q146.613 130.577 147.178 131.53Q147.207 131.579 147.237 131.626C147.653 132.282 148.227 132.788 148.959 133.143Q150.057 133.676 151.479 133.676C152.001 133.676 152.475 133.607 152.901 133.47C153.326 133.332 153.699 133.137 154.018 132.884Q154.42 132.566 154.676 132.156Q154.724 132.078 154.768 131.996Q154.795 132.383 154.795 132.736Q154.795 133.896 154.502 134.684C154.247 135.369 153.866 135.868 153.36 136.182C152.854 136.495 152.266 136.652 151.595 136.652C150.989 136.652 150.486 136.484 150.086 136.148C149.686 135.812 149.428 135.375 149.312 134.838L146.623 134.838C146.681 135.65 146.948 136.359 147.426 136.964C147.903 137.569 148.519 138.038 149.273 138.37C150.028 138.703 150.84 138.87 151.711 138.87ZM150.289 130.849C150.715 131.249 151.272 131.449 151.962 131.449Q152.129 131.449 152.292 131.428Q152.709 131.374 153.109 131.185C153.479 131.009 153.784 130.786 154.023 130.518C154.261 130.249 154.381 129.97 154.381 129.682C154.381 129.663 154.381 129.644 154.381 129.625C154.381 129.029 154.282 128.515 154.086 128.084C153.883 127.639 153.599 127.298 153.234 127.062Q153.136 126.998 153.033 126.946Q152.558 126.706 151.962 126.706C151.518 126.706 151.121 126.809 150.773 127.014C150.424 127.218 150.15 127.506 149.95 127.878C149.75 128.249 149.651 128.678 149.651 129.164Q149.651 130.052 150.078 130.615Q150.173 130.74 150.289 130.849Z" clip-rule="evenodd" fill="#FFFFFF" fill-opacity="1.000000" fill-rule="evenodd"/>
	</g>
	<rect id="Group 29" rx="-0.500000" width="131.000000" height="53.000000" transform="translate(66.752930 155.158325)" fill="#FFFFFF" fill-opacity="0"/>
	<g clip-path="url(#clip0_2436)">
		<g filter="url(#filter_0_2437_dd)">
			<rect id="Rectangle" x="66.252930" y="154.658325" rx="5.000000" width="131.255035" height="53.191490" fill="#FBFCFE" fill-opacity="1.000000"/>
			<rect id="Rectangle" x="66.252930" y="154.658325" rx="5.000000" width="131.255035" height="53.191490" stroke="#979797" stroke-opacity="0" stroke-width="0.000000"/>
		</g>
		<path id="YourApp" d="M78.334 168.085L78.334 169.943L77.4548 169.943L77.4548 168.082L75.9436 165.523L76.895 165.523L77.8975 167.314L78.8877 165.523L79.8481 165.523L78.334 168.085ZM82.4297 169.797Q82.094 170.004 81.6182 170.004Q81.1606 170.004 80.822 169.806C80.5962 169.673 80.4216 169.486 80.2981 169.243C80.1748 169.001 80.113 168.713 80.113 168.381Q80.113 167.883 80.2981 167.51C80.4216 167.261 80.5962 167.068 80.822 166.929Q80.8333 166.922 80.8445 166.916Q81.176 166.721 81.6213 166.721C81.9285 166.721 82.1943 166.789 82.4189 166.924C82.6438 167.06 82.8174 167.252 82.9399 167.501C83.0623 167.749 83.1235 168.043 83.1235 168.381Q83.1235 168.858 82.9443 169.223C82.825 169.467 82.6533 169.658 82.4297 169.797ZM81.6213 169.341C81.4568 169.341 81.3271 169.293 81.2329 169.197Q81.0916 169.054 81.0312 168.826C80.9912 168.674 80.9709 168.516 80.9709 168.351Q80.9709 168.082 81.0374 167.86C81.0813 167.712 81.1511 167.595 81.2466 167.508C81.3418 167.422 81.4668 167.378 81.6213 167.378C81.7839 167.378 81.9124 167.424 82.0066 167.516C82.1008 167.608 82.1677 167.728 82.2068 167.877Q82.2656 168.1 82.2656 168.351C82.2656 168.528 82.2439 168.691 82.2007 168.841C82.1577 168.991 82.0889 169.112 81.9946 169.203C81.9001 169.295 81.7759 169.341 81.6213 169.341ZM85.2292 169.948C85.1018 169.985 84.9768 170.004 84.8545 170.004C84.71 170.004 84.5681 169.982 84.4285 169.937C84.2891 169.892 84.1621 169.826 84.0476 169.738C83.9333 169.651 83.8416 169.543 83.7722 169.414C83.7031 169.286 83.6685 169.137 83.6685 168.968L83.6685 166.782L84.5474 166.782L84.5474 168.855Q84.5474 169.001 84.6099 169.112Q84.6414 169.168 84.689 169.216C84.7832 169.309 84.9216 169.356 85.1042 169.356C85.2769 169.356 85.4138 169.311 85.5154 169.22C85.6167 169.13 85.6672 169.003 85.6672 168.84L85.6672 166.782L86.5374 166.782L86.5374 169.943L85.875 169.943L85.7727 169.317Q85.7185 169.595 85.5696 169.743C85.4702 169.842 85.3567 169.91 85.2292 169.948ZM88.1299 168.213L88.1299 169.943L87.2507 169.943L87.2507 166.782L88.0967 166.782L88.0967 167.531C88.147 167.37 88.2178 167.229 88.3091 167.108C88.4004 166.987 88.5112 166.892 88.6416 166.824Q88.6487 166.82 88.6558 166.816Q88.8462 166.721 89.0842 166.721Q89.1262 166.721 89.1638 166.726C89.189 166.729 89.2075 166.733 89.2197 166.74L89.2197 167.589C89.2017 167.581 89.1799 167.576 89.1548 167.574Q89.1172 167.571 89.0872 167.568Q88.8284 167.547 88.6445 167.583C88.5222 167.608 88.4229 167.649 88.3467 167.709Q88.2705 167.768 88.2224 167.844Q88.1982 167.883 88.1809 167.926C88.147 168.011 88.1299 168.107 88.1299 168.213ZM92.0103 168.919L91.646 169.943L90.7639 169.943L92.3235 165.523L93.2505 165.523L94.8069 169.943L93.9309 169.943L93.5757 168.919L92.0103 168.919ZM93.365 168.14L92.2061 168.14L92.79 166.385L93.365 168.14ZM96.228 169.469L96.228 170.928L95.3489 170.928L95.3489 166.782L96.231 166.782L96.2339 167.238C96.28 167.162 96.3369 167.094 96.4041 167.031C96.4712 166.969 96.5461 166.915 96.6284 166.868Q96.7517 166.798 96.8962 166.759C96.9927 166.734 97.094 166.721 97.2002 166.721Q97.4543 166.721 97.668 166.814Q97.7454 166.848 97.8174 166.894C97.998 167.009 98.1401 167.186 98.2434 167.426C98.3467 167.665 98.3984 167.969 98.3984 168.338Q98.3984 168.913 98.2314 169.281Q98.0728 169.631 97.8013 169.809Q97.7869 169.818 97.7722 169.827C97.5776 169.945 97.3579 170.004 97.113 170.004C97.0127 170.004 96.9182 169.991 96.8301 169.963Q96.7112 169.926 96.6082 169.863Q96.5962 169.856 96.5847 169.849C96.5095 169.8 96.4421 169.743 96.3831 169.679C96.3237 169.615 96.272 169.545 96.228 169.469ZM96.9023 169.35C96.7498 169.35 96.6238 169.303 96.5244 169.21C96.425 169.116 96.3508 168.993 96.3018 168.84Q96.228 168.61 96.228 168.344C96.228 168.067 96.2837 167.835 96.395 167.649C96.5063 167.463 96.6755 167.369 96.9023 167.369C97.105 167.369 97.2681 167.455 97.3914 167.628Q97.5767 167.886 97.5767 168.344Q97.5767 168.867 97.3823 169.109Q97.2646 169.255 97.113 169.313Q97.0146 169.35 96.9023 169.35ZM99.8616 169.469L99.8616 170.928L98.9824 170.928L98.9824 166.782L99.8645 166.782L99.8674 167.238C99.9138 167.162 99.9705 167.094 100.038 167.031C100.105 166.969 100.18 166.915 100.262 166.868Q100.385 166.798 100.53 166.759C100.626 166.734 100.728 166.721 100.834 166.721Q101.088 166.721 101.302 166.814Q101.379 166.848 101.451 166.894C101.632 167.009 101.774 167.186 101.877 167.426C101.98 167.665 102.032 167.969 102.032 168.338Q102.032 168.913 101.865 169.281Q101.706 169.631 101.435 169.809Q101.42 169.818 101.406 169.827C101.211 169.945 100.991 170.004 100.747 170.004C100.646 170.004 100.552 169.991 100.464 169.963Q100.345 169.926 100.242 169.863Q100.23 169.856 100.218 169.849C100.143 169.8 100.076 169.743 100.017 169.679C99.9573 169.615 99.9058 169.545 99.8616 169.469ZM100.536 169.35C100.383 169.35 100.257 169.303 100.158 169.21C100.059 169.116 99.9844 168.993 99.9353 168.84Q99.8616 168.61 99.8616 168.344C99.8616 168.067 99.9172 167.835 100.029 167.649C100.14 167.463 100.309 167.369 100.536 167.369C100.739 167.369 100.902 167.455 101.025 167.628Q101.21 167.886 101.21 168.344Q101.21 168.867 101.016 169.109Q100.898 169.255 100.747 169.313Q100.648 169.35 100.536 169.35Z" clip-rule="evenodd" fill="#BA4270" fill-opacity="1.000000" fill-rule="evenodd"/>
		<g opacity="0.500000" style="mix-blend-mode:normal">
			<path id="JustNow" d="M164.139 169.876Q163.938 170.004 163.571 170.004Q163.339 170.004 163.136 169.949C163.001 169.913 162.911 169.885 162.867 169.867L162.906 169.326C162.968 169.348 163.04 169.376 163.121 169.41Q163.243 169.46 163.424 169.46Q163.686 169.46 163.802 169.33Q163.816 169.314 163.829 169.295Q163.938 169.13 163.938 168.739L163.938 165.523L164.495 165.523L164.495 168.901Q164.495 169.252 164.417 169.5C164.365 169.665 164.272 169.79 164.139 169.876ZM166.971 169.939C166.844 169.984 166.707 170.006 166.561 170.004C166.398 170.002 166.245 169.978 166.101 169.932C165.958 169.887 165.831 169.819 165.721 169.729C165.61 169.64 165.523 169.528 165.46 169.395C165.397 169.261 165.365 169.106 165.365 168.928L165.365 166.782L165.922 166.782L165.922 168.87Q165.922 169.097 166.023 169.261Q166.06 169.32 166.11 169.372C166.236 169.5 166.425 169.564 166.678 169.564Q166.987 169.564 167.188 169.417Q167.21 169.4 167.23 169.382C167.37 169.261 167.439 169.08 167.439 168.84L167.439 166.782L167.993 166.782L167.993 169.943L167.551 169.943L167.494 169.338C167.456 169.497 167.391 169.625 167.3 169.723C167.208 169.821 167.099 169.893 166.971 169.939ZM170.614 169.89C170.437 169.966 170.221 170.004 169.968 170.004C169.751 170.004 169.55 169.97 169.365 169.902C169.179 169.834 169.025 169.727 168.903 169.581C168.78 169.435 168.703 169.249 168.671 169.023L169.177 169.023C169.205 169.147 169.255 169.251 169.329 169.333Q169.352 169.36 169.378 169.383Q169.474 169.47 169.604 169.52C169.714 169.562 169.835 169.583 169.965 169.583Q170.278 169.583 170.471 169.463C170.6 169.384 170.664 169.261 170.664 169.096C170.664 168.98 170.63 168.887 170.563 168.817C170.496 168.746 170.392 168.695 170.251 168.662L169.607 168.5C169.356 168.439 169.156 168.343 169.005 168.213C168.854 168.083 168.779 167.9 168.779 167.666L168.779 167.653Q168.779 167.383 168.909 167.177C168.997 167.036 169.129 166.925 169.306 166.843Q169.571 166.721 169.965 166.721Q170.471 166.721 170.783 166.952Q170.882 167.026 170.951 167.122Q171.098 167.326 171.106 167.629L170.615 167.629C170.595 167.478 170.529 167.359 170.415 167.27C170.302 167.181 170.15 167.137 169.959 167.137Q169.661 167.137 169.475 167.258Q169.408 167.301 169.365 167.361Q169.288 167.469 169.288 167.632C169.288 167.744 169.332 167.832 169.42 167.897C169.509 167.961 169.639 168.014 169.812 168.057L170.435 168.216C170.579 168.255 170.698 168.306 170.792 168.369C170.885 168.432 170.959 168.502 171.014 168.58C171.07 168.657 171.109 168.738 171.132 168.823C171.155 168.907 171.167 168.988 171.167 169.066C171.167 169.26 171.119 169.426 171.023 169.566C170.928 169.705 170.792 169.813 170.614 169.89ZM173.411 169.943C173.333 169.953 173.238 169.958 173.123 169.958C172.908 169.958 172.742 169.929 172.624 169.87C172.505 169.811 172.422 169.723 172.375 169.607C172.328 169.491 172.304 169.348 172.304 169.179L172.304 167.195L171.799 167.195L171.799 166.782L172.32 166.782L172.455 165.862L172.864 165.862L172.864 166.779L173.566 166.779L173.566 167.195L172.864 167.195L172.864 169.161C172.864 169.273 172.876 169.355 172.899 169.407C172.922 169.459 172.961 169.492 173.016 169.506C173.072 169.52 173.147 169.527 173.244 169.527L173.584 169.527L173.584 169.906C173.546 169.921 173.488 169.933 173.411 169.943ZM176.426 166.458L176.426 169.943L175.869 169.943L175.869 165.523L176.402 165.523L178.702 168.959L178.702 165.523L179.259 165.523L179.259 169.943L178.762 169.943L176.426 166.458ZM182.31 169.798C182.1 169.936 181.841 170.004 181.531 170.004Q181.105 170.004 180.785 169.82Q180.782 169.818 180.779 169.816C180.564 169.691 180.397 169.507 180.279 169.265C180.161 169.022 180.102 168.726 180.102 168.375Q180.102 167.88 180.267 167.507C180.377 167.258 180.54 167.065 180.753 166.927Q181.074 166.721 181.531 166.721C181.818 166.721 182.068 166.785 182.28 166.912C182.491 167.04 182.655 167.227 182.772 167.473C182.888 167.72 182.946 168.02 182.946 168.375Q182.946 168.858 182.785 169.225C182.678 169.469 182.519 169.66 182.31 169.798ZM181.531 169.558C181.325 169.558 181.157 169.505 181.029 169.399C180.9 169.293 180.806 169.149 180.746 168.968Q180.655 168.696 180.655 168.363C180.655 168.112 180.689 167.897 180.756 167.718Q180.855 167.454 181.045 167.312Q181.049 167.31 181.053 167.307Q181.075 167.291 181.098 167.276Q181.28 167.164 181.531 167.164C181.736 167.164 181.902 167.217 182.03 167.323C182.157 167.429 182.25 167.573 182.308 167.753Q182.396 168.023 182.396 168.363C182.396 168.609 182.362 168.822 182.296 169.002C182.23 169.181 182.133 169.319 182.004 169.414C181.875 169.51 181.718 169.558 181.531 169.558ZM185.572 167.611L184.897 169.943L184.352 169.943L183.392 166.782L183.907 166.782L184.62 169.213L184.668 169.213L185.37 166.782L185.791 166.782L186.52 169.207L186.568 169.207L187.251 166.782L187.772 166.782L186.83 169.943L186.282 169.943L185.572 167.611Z" clip-rule="evenodd" fill="#36536B" fill-opacity="1.000000" fill-rule="evenodd"/>
		</g>
		<path id="The payment has been" d="M77.24 176.93L75.76 176.93L75.76 176.43L79.3 176.43L79.3 176.93L77.81 176.93L77.81 181.15L77.24 181.15L77.24 176.93ZM81.59 178.05C81.05 178.05 80.66 178.4 80.66 179.02L80.66 181.15L80.11 181.15L80.11 176.43L80.66 176.43L80.66 178.16L80.71 178.16C80.87 177.8 81.19 177.56 81.75 177.56C82.47 177.56 82.96 177.99 82.96 178.9L82.96 181.15L82.41 181.15L82.41 178.94C82.41 178.38 82.1 178.05 81.59 178.05ZM119.59 178.05C119.06 178.05 118.66 178.4 118.66 179.02L118.66 181.15L118.12 181.15L118.12 176.43L118.66 176.43L118.66 178.16L118.71 178.16C118.87 177.8 119.19 177.56 119.75 177.56C120.48 177.56 120.96 177.99 120.96 178.9L120.96 181.15L120.42 181.15L120.42 178.94C120.42 178.38 120.11 178.05 119.59 178.05ZM131.45 181.15L130.92 181.15L130.92 176.43L131.47 176.43L131.47 178.17L131.51 178.17C131.64 177.99 131.85 177.56 132.54 177.56C133.43 177.56 134.05 178.27 134.05 179.39C134.05 180.52 133.43 181.23 132.55 181.23C131.87 181.23 131.64 180.8 131.51 180.61L131.45 180.61L131.45 181.15ZM178.6 180.61C178.48 180.8 178.25 181.23 177.57 181.23C176.68 181.23 176.06 180.52 176.06 179.39C176.06 178.27 176.68 177.56 177.58 177.56C178.27 177.56 178.48 177.99 178.6 178.17L178.65 178.17L178.65 176.43L179.19 176.43L179.19 181.15L178.67 181.15L178.67 180.61L178.6 180.61ZM114.71 177.61L115.47 177.61L115.47 178.07L114.71 178.07L114.71 180.14C114.71 180.6 114.94 180.67 115.18 180.67C115.3 180.67 115.38 180.66 115.42 180.65L115.53 181.13C115.46 181.16 115.33 181.2 115.13 181.2C114.67 181.2 114.17 180.9 114.17 180.29L114.17 178.07L113.63 178.07L113.63 177.61L114.17 177.61L114.17 176.76L114.71 176.76L114.71 177.61ZM152.59 181.15L152.05 181.15L152.05 177.61L152.58 177.61L152.58 178.14L152.61 178.14C152.74 177.79 153.11 177.55 153.53 177.55C153.62 177.55 153.76 177.56 153.82 177.56L153.82 178.12C153.78 178.11 153.63 178.08 153.49 178.08C152.97 178.08 152.59 178.43 152.59 178.91L152.59 181.15ZM86.85 180.33C86.69 180.87 86.16 181.23 85.44 181.23C84.42 181.23 83.79 180.5 83.79 179.41C83.79 178.32 84.43 177.56 85.39 177.56C86.12 177.56 86.91 178.01 86.91 179.34L86.91 179.57L84.34 179.57C84.36 180.33 84.8 180.74 85.44 180.74C85.87 180.74 86.19 180.55 86.33 180.18L86.85 180.33ZM90.11 182.48L89.57 182.48L89.57 177.61L90.1 177.61L90.1 178.17L90.16 178.17C90.28 177.99 90.49 177.56 91.18 177.56C92.08 177.56 92.7 178.27 92.7 179.39C92.7 180.52 92.08 181.23 91.19 181.23C90.51 181.23 90.28 180.8 90.16 180.61L90.11 180.61L90.11 182.48ZM95.63 180.67C95.51 180.9 95.19 181.24 94.57 181.24C93.9 181.24 93.36 180.84 93.36 180.15C93.36 179.34 94.08 179.19 94.74 179.1C95.39 179.02 95.65 179.04 95.65 178.78L95.65 178.76C95.65 178.31 95.41 178.04 94.91 178.04C94.39 178.04 94.1 178.32 93.98 178.58L93.46 178.39C93.74 177.75 94.35 177.56 94.89 177.56C95.34 177.56 96.2 177.69 96.2 178.82L96.2 181.15L95.65 181.15L95.65 180.67L95.63 180.67ZM101.23 181.15L100.69 181.15L100.69 177.61L101.21 177.61L101.21 178.16L101.26 178.16C101.41 177.78 101.75 177.56 102.21 177.56C102.68 177.56 102.99 177.78 103.16 178.16L103.2 178.16C103.38 177.8 103.75 177.56 104.26 177.56C104.89 177.56 105.34 177.95 105.34 178.78L105.34 181.15L104.79 181.15L104.79 178.78C104.79 178.26 104.46 178.05 104.07 178.05C103.58 178.05 103.29 178.39 103.29 178.84L103.29 181.15L102.74 181.15L102.74 178.73C102.74 178.32 102.45 178.05 102.03 178.05C101.61 178.05 101.23 178.42 101.23 178.94L101.23 181.15ZM109.24 180.33C109.07 180.87 108.54 181.23 107.82 181.23C106.8 181.23 106.17 180.5 106.17 179.41C106.17 178.32 106.81 177.56 107.77 177.56C108.51 177.56 109.29 178.01 109.29 179.34L109.29 179.57L106.72 179.57C106.74 180.33 107.18 180.74 107.82 180.74C108.25 180.74 108.57 180.55 108.71 180.18L109.24 180.33ZM111.57 178.05C111.05 178.05 110.67 178.4 110.67 179.02L110.67 181.15L110.12 181.15L110.12 177.61L110.65 177.61L110.65 178.16L110.69 178.16C110.86 177.8 111.19 177.56 111.73 177.56C112.45 177.56 112.93 178 112.93 178.9L112.93 181.15L112.38 181.15L112.38 178.94C112.38 178.38 112.08 178.05 111.57 178.05ZM124.05 180.67C123.94 180.9 123.62 181.24 123 181.24C122.33 181.24 121.79 180.84 121.79 180.15C121.79 179.34 122.51 179.19 123.17 179.1C123.82 179.02 124.08 179.04 124.08 178.78L124.08 178.76C124.08 178.31 123.84 178.04 123.33 178.04C122.82 178.04 122.53 178.32 122.41 178.58L121.89 178.39C122.17 177.75 122.78 177.56 123.32 177.56C123.77 177.56 124.63 177.69 124.63 178.82L124.63 181.15L124.08 181.15L124.08 180.67L124.05 180.67ZM126.88 177.56C127.58 177.56 127.96 177.9 128.14 178.4L127.65 178.54C127.55 178.3 127.36 178.03 126.88 178.03C126.45 178.03 126.12 178.25 126.12 178.56C126.12 178.83 126.31 178.97 126.73 179.08L127.26 179.21C127.89 179.36 128.2 179.67 128.2 180.17C128.2 180.78 127.64 181.23 126.82 181.23C126.09 181.23 125.59 180.91 125.47 180.3L125.98 180.17C126.08 180.56 126.36 180.75 126.81 180.75C127.31 180.75 127.64 180.5 127.64 180.19C127.64 179.95 127.47 179.78 127.11 179.7L126.52 179.56C125.87 179.4 125.58 179.08 125.58 178.59C125.58 177.99 126.13 177.56 126.88 177.56ZM137.78 180.33C137.62 180.87 137.09 181.23 136.37 181.23C135.35 181.23 134.72 180.5 134.72 179.41C134.72 178.32 135.36 177.56 136.32 177.56C137.05 177.56 137.84 178.01 137.84 179.34L137.84 179.57L135.27 179.57C135.29 180.33 135.73 180.74 136.37 180.74C136.8 180.74 137.12 180.55 137.26 180.18L137.78 180.33ZM141.57 180.33C141.4 180.87 140.88 181.23 140.16 181.23C139.13 181.23 138.5 180.5 138.5 179.41C138.5 178.32 139.14 177.56 140.1 177.56C140.84 177.56 141.62 178.01 141.62 179.34L141.62 179.57L139.05 179.57C139.08 180.33 139.52 180.74 140.16 180.74C140.58 180.74 140.9 180.55 141.04 180.18L141.57 180.33ZM143.91 178.05C143.38 178.05 143 178.4 143 179.02L143 181.15L142.46 181.15L142.46 177.61L142.98 177.61L142.98 178.16L143.03 178.16C143.2 177.8 143.53 177.56 144.06 177.56C144.78 177.56 145.26 178 145.26 178.9L145.26 181.15L144.72 181.15L144.72 178.94C144.72 178.38 144.41 178.05 143.91 178.05ZM148.63 182.48L148.09 182.48L148.09 177.61L148.61 177.61L148.61 178.17L148.68 178.17C148.8 177.99 149.01 177.56 149.7 177.56C150.6 177.56 151.22 178.27 151.22 179.39C151.22 180.52 150.6 181.23 149.71 181.23C149.03 181.23 148.8 180.8 148.68 180.61L148.63 180.61L148.63 182.48ZM157.4 179.4C157.4 180.5 156.76 181.23 155.8 181.23C154.84 181.23 154.19 180.5 154.19 179.4C154.19 178.29 154.84 177.56 155.8 177.56C156.76 177.56 157.4 178.29 157.4 179.4ZM161.07 180.12C160.98 180.75 160.46 181.23 159.67 181.23C158.68 181.23 158.07 180.46 158.07 179.4C158.07 178.32 158.71 177.56 159.67 177.56C160.41 177.56 160.98 178.01 161.07 178.67L160.52 178.67C160.44 178.35 160.15 178.05 159.67 178.05C159.04 178.05 158.61 178.58 158.61 179.38C158.61 180.2 159.03 180.74 159.67 180.74C160.1 180.74 160.42 180.51 160.52 180.12L161.07 180.12ZM164.76 180.33C164.6 180.87 164.07 181.23 163.35 181.23C162.32 181.23 161.7 180.5 161.7 179.41C161.7 178.32 162.33 177.56 163.29 177.56C164.03 177.56 164.82 178.01 164.82 179.34L164.82 179.57L162.24 179.57C162.27 180.33 162.71 180.74 163.35 180.74C163.78 180.74 164.1 180.55 164.24 180.18L164.76 180.33ZM166.9 177.56C167.61 177.56 167.99 177.9 168.16 178.4L167.67 178.54C167.58 178.3 167.38 178.03 166.9 178.03C166.47 178.03 166.15 178.25 166.15 178.56C166.15 178.83 166.34 178.97 166.76 179.08L167.28 179.21C167.92 179.36 168.22 179.67 168.22 180.17C168.22 180.78 167.66 181.23 166.84 181.23C166.12 181.23 165.62 180.91 165.49 180.3L166.01 180.17C166.11 180.56 166.39 180.75 166.83 180.75C167.34 180.75 167.66 180.5 167.66 180.19C167.66 179.95 167.49 179.78 167.14 179.7L166.55 179.56C165.89 179.4 165.6 179.08 165.6 178.59C165.6 177.99 166.16 177.56 166.9 177.56ZM170.3 177.56C171 177.56 171.39 177.9 171.56 178.4L171.07 178.54C170.97 178.3 170.78 178.03 170.3 178.03C169.87 178.03 169.54 178.25 169.54 178.56C169.54 178.83 169.74 178.97 170.15 179.08L170.68 179.21C171.31 179.36 171.62 179.67 171.62 180.17C171.62 180.78 171.06 181.23 170.24 181.23C169.51 181.23 169.02 180.91 168.89 180.3L169.41 180.17C169.5 180.56 169.78 180.75 170.23 180.75C170.74 180.75 171.06 180.5 171.06 180.19C171.06 179.95 170.89 179.78 170.53 179.7L169.94 179.56C169.29 179.4 169 179.08 169 178.59C169 177.99 169.55 177.56 170.3 177.56ZM175.34 180.33C175.18 180.87 174.65 181.23 173.93 181.23C172.91 181.23 172.28 180.5 172.28 179.41C172.28 178.32 172.92 177.56 173.88 177.56C174.61 177.56 175.4 178.01 175.4 179.34L175.4 179.57L172.82 179.57C172.85 180.33 173.29 180.74 173.93 180.74C174.36 180.74 174.68 180.55 174.82 180.18L175.34 180.33ZM98.46 181.67C98.25 182.22 97.91 182.48 97.42 182.48C97.23 182.48 97.08 182.45 97.02 182.42L97.16 181.94C97.56 182.04 97.8 181.99 98 181.45L98.1 181.17L96.79 177.61L97.38 177.61L98.36 180.43L98.4 180.43L99.37 177.61L99.97 177.61L98.46 181.67ZM85.39 178.05C84.76 178.05 84.37 178.54 84.34 179.1L86.36 179.1C86.36 178.49 85.98 178.05 85.39 178.05ZM91.12 178.05C90.46 178.05 90.11 178.59 90.11 179.38C90.11 180.18 90.47 180.74 91.12 180.74C91.8 180.74 92.15 180.14 92.15 179.38C92.15 178.63 91.81 178.05 91.12 178.05ZM107.77 178.05C107.14 178.05 106.75 178.54 106.72 179.1L108.74 179.1C108.74 178.49 108.36 178.05 107.77 178.05ZM132.47 178.05C131.81 178.05 131.46 178.59 131.46 179.38C131.46 180.18 131.82 180.74 132.47 180.74C133.16 180.74 133.51 180.14 133.51 179.38C133.51 178.63 133.17 178.05 132.47 178.05ZM136.32 178.05C135.69 178.05 135.3 178.54 135.27 179.1L137.28 179.1C137.28 178.49 136.91 178.05 136.32 178.05ZM140.1 178.05C139.48 178.05 139.09 178.54 139.05 179.1L141.07 179.1C141.07 178.49 140.69 178.05 140.1 178.05ZM149.64 178.05C148.97 178.05 148.62 178.59 148.62 179.38C148.62 180.18 148.98 180.74 149.64 180.74C150.32 180.74 150.67 180.14 150.67 179.38C150.67 178.63 150.33 178.05 149.64 178.05ZM154.74 179.4C154.74 180.11 155.07 180.74 155.8 180.74C156.53 180.74 156.86 180.11 156.86 179.4C156.86 178.69 156.53 178.05 155.8 178.05C155.07 178.05 154.74 178.69 154.74 179.4ZM163.29 178.05C162.67 178.05 162.28 178.54 162.24 179.1L164.26 179.1C164.26 178.49 163.88 178.05 163.29 178.05ZM173.88 178.05C173.25 178.05 172.86 178.54 172.82 179.1L174.85 179.1C174.85 178.49 174.47 178.05 173.88 178.05ZM176.61 179.38C176.61 180.14 176.96 180.74 177.64 180.74C178.3 180.74 178.66 180.18 178.66 179.38C178.66 178.59 178.31 178.05 177.64 178.05C176.95 178.05 176.61 178.63 176.61 179.38ZM93.91 180.17C93.91 180.55 94.22 180.75 94.66 180.75C95.3 180.75 95.65 180.31 95.65 179.87L95.65 179.37C95.56 179.48 94.94 179.55 94.71 179.57C94.29 179.63 93.91 179.76 93.91 180.17ZM122.34 180.17C122.34 180.55 122.65 180.75 123.09 180.75C123.73 180.75 124.08 180.31 124.08 179.87L124.08 179.37C123.99 179.48 123.37 179.55 123.14 179.57C122.72 179.63 122.34 179.76 122.34 180.17ZM181.08 180.77C181.08 181 180.89 181.19 180.66 181.19C180.43 181.19 180.25 181 180.25 180.77C180.25 180.55 180.43 180.36 180.66 180.36C180.89 180.36 181.08 180.55 181.08 180.77ZM162.16 186.61L162.95 186.61L162.95 187.07L162.16 187.07L162.16 190.15L161.61 190.15L161.61 187.07L161.04 187.07L161.04 186.61L161.61 186.61L161.61 186.12C161.61 185.51 162.1 185.2 162.61 185.2C162.88 185.2 163.04 185.26 163.13 185.3L162.97 185.77C162.92 185.75 162.82 185.71 162.67 185.71C162.31 185.71 162.16 185.9 162.16 186.25L162.16 186.61ZM77.24 185.93L75.76 185.93L75.76 185.43L79.3 185.43L79.3 185.93L77.81 185.93L77.81 190.15L77.24 190.15L77.24 185.93ZM81.59 187.05C81.05 187.05 80.66 187.4 80.66 188.02L80.66 190.15L80.11 190.15L80.11 185.43L80.66 185.43L80.66 187.16L80.71 187.16C80.87 186.8 81.19 186.56 81.75 186.56C82.47 186.56 82.96 186.99 82.96 187.9L82.96 190.15L82.41 190.15L82.41 187.94C82.41 187.38 82.1 187.05 81.59 187.05ZM101.8 185.43L102.35 185.43L102.35 190.15L101.8 190.15L101.8 185.43ZM132.51 189.61C132.39 189.8 132.16 190.23 131.48 190.23C130.59 190.23 129.97 189.52 129.97 188.39C129.97 187.27 130.59 186.56 131.49 186.56C132.18 186.56 132.39 186.99 132.51 187.17L132.56 187.17L132.56 185.43L133.1 185.43L133.1 190.15L132.58 190.15L132.58 189.61L132.51 189.61ZM140.33 189.61C140.21 189.8 139.98 190.23 139.3 190.23C138.41 190.23 137.79 189.52 137.79 188.39C137.79 187.27 138.41 186.56 139.31 186.56C140 186.56 140.21 186.99 140.33 187.17L140.38 187.17L140.38 185.43L140.92 185.43L140.92 190.15L140.4 190.15L140.4 189.61L140.33 189.61ZM157.88 189.61C157.76 189.8 157.53 190.23 156.85 190.23C155.96 190.23 155.34 189.52 155.34 188.39C155.34 187.27 155.96 186.56 156.86 186.56C157.55 186.56 157.76 186.99 157.88 187.17L157.93 187.17L157.93 185.43L158.48 185.43L158.48 190.15L157.95 190.15L157.95 189.61L157.88 189.61ZM90.35 186.61L91.11 186.61L91.11 187.07L90.35 187.07L90.35 189.14C90.35 189.6 90.58 189.67 90.82 189.67C90.94 189.67 91.02 189.66 91.07 189.65L91.18 190.13C91.1 190.16 90.97 190.2 90.77 190.2C90.31 190.2 89.81 189.9 89.81 189.29L89.81 187.07L89.27 187.07L89.27 186.61L89.81 186.61L89.81 185.76L90.35 185.76L90.35 186.61ZM96.56 186.61L97.32 186.61L97.32 187.07L96.56 187.07L96.56 189.14C96.56 189.6 96.79 189.67 97.03 189.67C97.15 189.67 97.22 189.66 97.27 189.65L97.38 190.13C97.31 190.16 97.18 190.2 96.97 190.2C96.51 190.2 96.01 189.9 96.01 189.29L96.01 187.07L95.48 187.07L95.48 186.61L96.01 186.61L96.01 185.76L96.56 185.76L96.56 186.61ZM126.73 186.61L127.49 186.61L127.49 187.07L126.73 187.07L126.73 189.14C126.73 189.6 126.96 189.67 127.2 189.67C127.32 189.67 127.4 189.66 127.44 189.65L127.55 190.13C127.48 190.16 127.35 190.2 127.15 190.2C126.69 190.2 126.19 189.9 126.19 189.29L126.19 187.07L125.65 187.07L125.65 186.61L126.19 186.61L126.19 185.76L126.73 185.76L126.73 186.61ZM150.18 186.61L150.94 186.61L150.94 187.07L150.18 187.07L150.18 189.14C150.18 189.6 150.41 189.67 150.65 189.67C150.77 189.67 150.85 189.66 150.89 189.65L151.01 190.13C150.93 190.16 150.8 190.2 150.6 190.2C150.14 190.2 149.64 189.9 149.64 189.29L149.64 187.07L149.1 187.07L149.1 186.61L149.64 186.61L149.64 185.76L150.18 185.76L150.18 186.61ZM164.26 190.15L163.72 190.15L163.72 186.61L164.25 186.61L164.25 187.14L164.28 187.14C164.41 186.79 164.78 186.55 165.21 186.55C165.29 186.55 165.43 186.56 165.49 186.56L165.49 187.12C165.46 187.11 165.3 187.08 165.16 187.08C164.64 187.08 164.26 187.43 164.26 187.91L164.26 190.15ZM86.85 189.33C86.69 189.87 86.16 190.23 85.44 190.23C84.42 190.23 83.79 189.5 83.79 188.41C83.79 187.32 84.43 186.56 85.39 186.56C86.12 186.56 86.91 187.01 86.91 188.34L86.91 188.57L84.34 188.57C84.36 189.33 84.8 189.74 85.44 189.74C85.87 189.74 86.19 189.55 86.33 189.18L86.85 189.33ZM94.94 188.4C94.94 189.5 94.3 190.23 93.34 190.23C92.38 190.23 91.73 189.5 91.73 188.4C91.73 187.29 92.38 186.56 93.34 186.56C94.3 186.56 94.94 187.29 94.94 188.4ZM100.23 189.67C100.12 189.9 99.8 190.24 99.18 190.24C98.51 190.24 97.97 189.84 97.97 189.15C97.97 188.34 98.69 188.19 99.35 188.1C99.99 188.02 100.26 188.04 100.26 187.78L100.26 187.76C100.26 187.31 100.01 187.04 99.51 187.04C98.99 187.04 98.71 187.32 98.59 187.58L98.07 187.39C98.35 186.75 98.96 186.56 99.49 186.56C99.95 186.56 100.81 186.69 100.81 187.82L100.81 190.15L100.26 190.15L100.26 189.67L100.23 189.67ZM107.27 189.67C107.16 189.9 106.83 190.24 106.22 190.24C105.54 190.24 105.01 189.84 105.01 189.15C105.01 188.34 105.73 188.19 106.38 188.1C107.03 188.02 107.3 188.04 107.3 187.78L107.3 187.76C107.3 187.31 107.05 187.04 106.55 187.04C106.03 187.04 105.75 187.32 105.63 187.58L105.11 187.39C105.39 186.75 105.99 186.56 106.53 186.56C106.98 186.56 107.84 186.69 107.84 187.82L107.84 190.15L107.3 190.15L107.3 189.67L107.27 189.67ZM109.38 190.15L108.84 190.15L108.84 186.61L109.37 186.61L109.37 187.16L109.41 187.16C109.56 186.78 109.9 186.56 110.36 186.56C110.83 186.56 111.14 186.78 111.31 187.16L111.35 187.16C111.53 186.8 111.9 186.56 112.41 186.56C113.04 186.56 113.49 186.95 113.49 187.78L113.49 190.15L112.95 190.15L112.95 187.78C112.95 187.26 112.62 187.05 112.23 187.05C111.73 187.05 111.44 187.39 111.44 187.84L111.44 190.15L110.89 190.15L110.89 187.73C110.89 187.32 110.6 187.05 110.19 187.05C109.76 187.05 109.38 187.42 109.38 187.94L109.38 190.15ZM117.54 188.4C117.54 189.5 116.89 190.23 115.93 190.23C114.97 190.23 114.32 189.5 114.32 188.4C114.32 187.29 114.97 186.56 115.93 186.56C116.89 186.56 117.54 187.29 117.54 188.4ZM123.59 187.05C123.07 187.05 122.69 187.4 122.69 188.02L122.69 190.15L122.14 190.15L122.14 186.61L122.67 186.61L122.67 187.16L122.72 187.16C122.88 186.8 123.21 186.56 123.75 186.56C124.47 186.56 124.95 187 124.95 187.9L124.95 190.15L124.41 190.15L124.41 187.94C124.41 187.38 124.1 187.05 123.59 187.05ZM137.07 189.33C136.91 189.87 136.38 190.23 135.66 190.23C134.64 190.23 134.01 189.5 134.01 188.41C134.01 187.32 134.64 186.56 135.6 186.56C136.34 186.56 137.13 187.01 137.13 188.34L137.13 188.57L134.55 188.57C134.58 189.33 135.02 189.74 135.66 189.74C136.09 189.74 136.41 189.55 136.55 189.18L137.07 189.33ZM148.6 189.12C148.51 189.75 147.99 190.23 147.21 190.23C146.21 190.23 145.6 189.46 145.6 188.4C145.6 187.32 146.24 186.56 147.2 186.56C147.95 186.56 148.51 187.01 148.6 187.67L148.06 187.67C147.98 187.35 147.69 187.05 147.21 187.05C146.57 187.05 146.15 187.58 146.15 188.38C146.15 189.2 146.57 189.74 147.21 189.74C147.63 189.74 147.96 189.51 148.06 189.12L148.6 189.12ZM154.62 189.33C154.46 189.87 153.93 190.23 153.21 190.23C152.19 190.23 151.56 189.5 151.56 188.41C151.56 187.32 152.2 186.56 153.16 186.56C153.89 186.56 154.68 187.01 154.68 188.34L154.68 188.57L152.11 188.57C152.13 189.33 152.57 189.74 153.21 189.74C153.64 189.74 153.96 189.55 154.1 189.18L154.62 189.33ZM169.07 188.4C169.07 189.5 168.43 190.23 167.47 190.23C166.51 190.23 165.86 189.5 165.86 188.4C165.86 187.29 166.51 186.56 167.47 186.56C168.43 186.56 169.07 187.29 169.07 188.4ZM170.45 190.15L169.91 190.15L169.91 186.61L170.43 186.61L170.43 187.16L170.48 187.16C170.63 186.78 170.97 186.56 171.43 186.56C171.9 186.56 172.2 186.78 172.38 187.16L172.42 187.16C172.6 186.8 172.97 186.56 173.48 186.56C174.11 186.56 174.56 186.95 174.56 187.78L174.56 190.15L174.01 190.15L174.01 187.78C174.01 187.26 173.68 187.05 173.29 187.05C172.79 187.05 172.51 187.39 172.51 187.84L172.51 190.15L171.96 190.15L171.96 187.73C171.96 187.32 171.67 187.05 171.25 187.05C170.83 187.05 170.45 187.42 170.45 187.94L170.45 190.15ZM119.69 189.67C120.09 189.67 120.6 189.37 120.6 188.7L120.6 186.61L121.15 186.61L121.15 190.15L120.6 190.15L120.6 189.55L120.56 189.55C120.4 189.91 120.05 190.2 119.51 190.2C118.85 190.2 118.37 189.77 118.37 188.86L118.37 186.61L118.91 186.61L118.91 188.82C118.91 189.34 119.23 189.67 119.69 189.67ZM143.31 189.67C143.72 189.67 144.23 189.37 144.23 188.7L144.23 186.61L144.77 186.61L144.77 190.15L144.23 190.15L144.23 189.55L144.19 189.55C144.03 189.91 143.67 190.2 143.14 190.2C142.47 190.2 141.99 189.77 141.99 188.86L141.99 186.61L142.54 186.61L142.54 188.82C142.54 189.34 142.86 189.67 143.31 189.67ZM85.39 187.05C84.76 187.05 84.37 187.54 84.34 188.1L86.36 188.1C86.36 187.49 85.98 187.05 85.39 187.05ZM92.27 188.4C92.27 189.11 92.61 189.74 93.34 189.74C94.06 189.74 94.4 189.11 94.4 188.4C94.4 187.69 94.06 187.05 93.34 187.05C92.61 187.05 92.27 187.69 92.27 188.4ZM114.87 188.4C114.87 189.11 115.2 189.74 115.93 189.74C116.66 189.74 116.99 189.11 116.99 188.4C116.99 187.69 116.66 187.05 115.93 187.05C115.2 187.05 114.87 187.69 114.87 188.4ZM130.52 188.38C130.52 189.14 130.87 189.74 131.55 189.74C132.21 189.74 132.57 189.18 132.57 188.38C132.57 187.59 132.22 187.05 131.55 187.05C130.86 187.05 130.52 187.63 130.52 188.38ZM135.6 187.05C134.98 187.05 134.59 187.54 134.55 188.1L136.57 188.1C136.57 187.49 136.2 187.05 135.6 187.05ZM138.34 188.38C138.34 189.14 138.69 189.74 139.37 189.74C140.03 189.74 140.39 189.18 140.39 188.38C140.39 187.59 140.04 187.05 139.37 187.05C138.68 187.05 138.34 187.63 138.34 188.38ZM153.16 187.05C152.53 187.05 152.14 187.54 152.11 188.1L154.13 188.1C154.13 187.49 153.75 187.05 153.16 187.05ZM155.89 188.38C155.89 189.14 156.24 189.74 156.92 189.74C157.58 189.74 157.94 189.18 157.94 188.38C157.94 187.59 157.59 187.05 156.92 187.05C156.23 187.05 155.89 187.63 155.89 188.38ZM166.41 188.4C166.41 189.11 166.74 189.74 167.47 189.74C168.2 189.74 168.53 189.11 168.53 188.4C168.53 187.69 168.2 187.05 167.47 187.05C166.74 187.05 166.41 187.69 166.41 188.4ZM98.52 189.17C98.52 189.55 98.83 189.75 99.26 189.75C99.91 189.75 100.26 189.31 100.26 188.87L100.26 188.37C100.17 188.48 99.55 188.55 99.32 188.57C98.89 188.63 98.52 188.76 98.52 189.17ZM105.55 189.17C105.55 189.55 105.87 189.75 106.3 189.75C106.95 189.75 107.3 189.31 107.3 188.87L107.3 188.37C107.2 188.48 106.59 188.55 106.36 188.57C105.93 188.63 105.55 188.76 105.55 189.17ZM118.57 194.65C118.57 194.85 118.4 195.02 118.18 195.02C117.97 195.02 117.79 194.85 117.79 194.65C117.79 194.45 117.97 194.28 118.18 194.28C118.4 194.28 118.57 194.45 118.57 194.65ZM114.5 195.61L115.26 195.61L115.26 196.07L114.5 196.07L114.5 198.14C114.5 198.6 114.73 198.67 114.97 198.67C115.09 198.67 115.16 198.66 115.21 198.65L115.32 199.13C115.25 199.16 115.12 199.2 114.91 199.2C114.45 199.2 113.95 198.9 113.95 198.29L113.95 196.07L113.42 196.07L113.42 195.61L113.95 195.61L113.95 194.76L114.5 194.76L114.5 195.61ZM87.63 199.15L87.09 199.15L87.09 195.61L87.61 195.61L87.61 196.14L87.65 196.14C87.78 195.79 88.15 195.55 88.57 195.55C88.65 195.55 88.8 195.56 88.86 195.56L88.86 196.12C88.82 196.11 88.67 196.08 88.53 196.08C88.01 196.08 87.63 196.43 87.63 196.91L87.63 199.15ZM82.48 197.4C82.48 198.5 81.83 199.23 80.87 199.23C79.91 199.23 79.26 198.5 79.26 197.4C79.26 196.29 79.91 195.56 80.87 195.56C81.83 195.56 82.48 196.29 82.48 197.4ZM93.43 198.67C93.32 198.9 92.99 199.24 92.38 199.24C91.7 199.24 91.17 198.84 91.17 198.15C91.17 197.34 91.88 197.19 92.54 197.1C93.19 197.02 93.46 197.04 93.46 196.78L93.46 196.76C93.46 196.31 93.21 196.04 92.71 196.04C92.19 196.04 91.91 196.32 91.78 196.58L91.27 196.39C91.54 195.75 92.15 195.56 92.69 195.56C93.14 195.56 94 195.69 94 196.82L94 199.15L93.46 199.15L93.46 198.67L93.43 198.67ZM97.83 198.12C97.74 198.75 97.22 199.23 96.44 199.23C95.44 199.23 94.83 198.46 94.83 197.4C94.83 196.32 95.47 195.56 96.43 195.56C97.18 195.56 97.74 196.01 97.83 196.67L97.29 196.67C97.21 196.35 96.92 196.05 96.44 196.05C95.8 196.05 95.38 196.58 95.38 197.38C95.38 198.2 95.79 198.74 96.44 198.74C96.86 198.74 97.19 198.51 97.29 198.12L97.83 198.12ZM101.46 198.12C101.37 198.75 100.85 199.23 100.07 199.23C99.07 199.23 98.46 198.46 98.46 197.4C98.46 196.32 99.1 195.56 100.06 195.56C100.81 195.56 101.37 196.01 101.46 196.67L100.92 196.67C100.83 196.35 100.55 196.05 100.07 196.05C99.43 196.05 99.01 196.58 99.01 197.38C99.01 198.2 99.42 198.74 100.07 198.74C100.49 198.74 100.82 198.51 100.92 198.12L101.46 198.12ZM105.3 197.4C105.3 198.5 104.66 199.23 103.7 199.23C102.74 199.23 102.09 198.5 102.09 197.4C102.09 196.29 102.74 195.56 103.7 195.56C104.66 195.56 105.3 196.29 105.3 197.4ZM111.36 196.05C110.84 196.05 110.45 196.4 110.45 197.02L110.45 199.15L109.91 199.15L109.91 195.61L110.44 195.61L110.44 196.16L110.48 196.16C110.65 195.8 110.98 195.56 111.52 195.56C112.23 195.56 112.72 196 112.72 196.9L112.72 199.15L112.17 199.15L112.17 196.94C112.17 196.38 111.86 196.05 111.36 196.05ZM120.7 195.56C121.41 195.56 121.79 195.9 121.96 196.4L121.47 196.54C121.38 196.3 121.18 196.03 120.7 196.03C120.27 196.03 119.95 196.25 119.95 196.56C119.95 196.83 120.14 196.97 120.55 197.08L121.08 197.21C121.71 197.36 122.02 197.67 122.02 198.17C122.02 198.78 121.46 199.23 120.64 199.23C119.91 199.23 119.42 198.91 119.29 198.3L119.81 198.17C119.9 198.56 120.18 198.75 120.63 198.75C121.14 198.75 121.46 198.5 121.46 198.19C121.46 197.95 121.29 197.78 120.93 197.7L120.34 197.56C119.69 197.4 119.4 197.08 119.4 196.59C119.4 195.99 119.95 195.56 120.7 195.56ZM77.34 199.67C77.13 200.22 76.78 200.48 76.29 200.48C76.11 200.48 75.95 200.45 75.89 200.42L76.03 199.94C76.43 200.04 76.68 199.99 76.87 199.45L76.98 199.17L75.66 195.61L76.26 195.61L77.23 198.43L77.27 198.43L78.25 195.61L78.84 195.61L77.34 199.67ZM84.63 198.67C85.04 198.67 85.54 198.37 85.54 197.7L85.54 195.61L86.09 195.61L86.09 199.15L85.54 199.15L85.54 198.55L85.51 198.55C85.34 198.91 84.99 199.2 84.45 199.2C83.79 199.2 83.31 198.77 83.31 197.86L83.31 195.61L83.85 195.61L83.85 197.82C83.85 198.34 84.18 198.67 84.63 198.67ZM107.45 198.67C107.86 198.67 108.37 198.37 108.37 197.7L108.37 195.61L108.91 195.61L108.91 199.15L108.37 199.15L108.37 198.55L108.33 198.55C108.16 198.91 107.81 199.2 107.28 199.2C106.61 199.2 106.13 198.77 106.13 197.86L106.13 195.61L106.68 195.61L106.68 197.82C106.68 198.34 107 198.67 107.45 198.67ZM118.45 199.15L117.91 199.15L117.91 195.61L118.45 195.61L118.45 199.15ZM79.81 197.4C79.81 198.11 80.14 198.74 80.87 198.74C81.6 198.74 81.93 198.11 81.93 197.4C81.93 196.69 81.6 196.05 80.87 196.05C80.14 196.05 79.81 196.69 79.81 197.4ZM102.63 197.4C102.63 198.11 102.97 198.74 103.7 198.74C104.42 198.74 104.76 198.11 104.76 197.4C104.76 196.69 104.42 196.05 103.7 196.05C102.97 196.05 102.63 196.69 102.63 197.4ZM91.71 198.17C91.71 198.55 92.03 198.75 92.46 198.75C93.1 198.75 93.46 198.31 93.46 197.87L93.46 197.37C93.36 197.48 92.74 197.55 92.51 197.57C92.09 197.63 91.71 197.76 91.71 198.17ZM162.51 198.77C162.51 199 162.32 199.19 162.09 199.19C161.87 199.19 161.68 199 161.68 198.77C161.68 198.55 161.87 198.36 162.09 198.36C162.32 198.36 162.51 198.55 162.51 198.77Z" fill="#36536B" fill-opacity="1.000000" fill-rule="evenodd"/>
		<path id="The payment has been" d="M136.71 199.74L136.33 199.74L136.33 199.22C135.29 199.16 134.64 198.63 134.62 197.67L135.58 197.67C135.61 198.09 135.91 198.32 136.33 198.37L136.33 197.16L136.03 197.08C135.23 196.89 134.74 196.49 134.74 195.79C134.74 194.99 135.4 194.44 136.33 194.37L136.33 193.84L136.71 193.84L136.71 194.37C137.66 194.43 138.28 194.99 138.29 195.79L137.33 195.79C137.3 195.47 137.08 195.26 136.71 195.21L136.71 196.36L136.94 196.41C137.76 196.6 138.35 197.02 138.36 197.8C138.35 198.62 137.75 199.16 136.71 199.22L136.71 199.74ZM152.76 196C152.76 195.05 153.47 194.36 154.53 194.36C155.5 194.37 156.41 194.95 156.42 196.67C156.42 198.27 155.66 199.22 154.49 199.22C153.55 199.22 152.9 198.62 152.81 197.82L153.79 197.82C153.87 198.16 154.13 198.36 154.49 198.36C155.11 198.36 155.44 197.79 155.44 196.85L155.41 196.85C155.2 197.27 154.73 197.52 154.21 197.52C153.38 197.52 152.76 196.88 152.76 196ZM132.53 195.79L131.57 195.79C131.53 195.42 131.24 195.2 130.76 195.2C130.27 195.2 130 195.42 130 195.73C130 196.07 130.34 196.22 130.75 196.31L131.17 196.41C132 196.6 132.59 197.02 132.59 197.8C132.59 198.67 131.91 199.22 130.76 199.22C129.61 199.22 128.88 198.69 128.85 197.67L129.82 197.67C129.85 198.14 130.23 198.38 130.75 198.38C131.25 198.38 131.58 198.15 131.58 197.8C131.58 197.48 131.3 197.34 130.78 197.21L130.27 197.08C129.47 196.89 128.98 196.49 128.98 195.79C128.97 194.93 129.73 194.36 130.77 194.36C131.82 194.36 132.51 194.94 132.53 195.79ZM145.94 196.79C145.94 198.35 145.22 199.26 144.03 199.26C142.84 199.26 142.12 198.35 142.12 196.79C142.13 195.25 142.85 194.36 144.03 194.36C145.22 194.36 145.94 195.25 145.94 196.79ZM160.87 196.79C160.87 198.35 160.15 199.26 158.96 199.26C157.77 199.26 157.05 198.35 157.05 196.79C157.06 195.25 157.78 194.36 158.96 194.36C160.15 194.36 160.87 195.25 160.87 196.79ZM127.18 197.41L127.18 194.43L128.18 194.43L128.18 197.5C128.18 198.53 127.4 199.22 126.22 199.22C125.05 199.22 124.26 198.53 124.26 197.5L124.26 194.43L125.26 194.43L125.26 197.41C125.26 197.95 125.65 198.34 126.22 198.34C126.81 198.34 127.18 197.95 127.18 197.41ZM140.11 194.43L141.05 194.43L141.05 199.15L140.06 199.15L140.06 195.38L140.03 195.38L138.94 196.05L138.94 195.17L140.11 194.43ZM148.85 198.32L146.58 198.32L146.58 197.54L148.55 194.43L149.8 194.43L149.8 197.52L150.39 197.52L150.39 198.32L149.8 198.32L149.8 199.15L148.85 199.15L148.85 198.32ZM155.34 195.97C155.33 195.52 154.99 195.15 154.53 195.15C154.07 195.15 153.73 195.51 153.73 195.97C153.73 196.44 154.06 196.8 154.53 196.8C154.98 196.8 155.34 196.42 155.34 195.97ZM143.14 196.79C143.14 197.88 143.49 198.43 144.03 198.43C144.57 198.43 144.92 197.88 144.92 196.79C144.92 195.72 144.57 195.18 144.03 195.18C143.49 195.18 143.14 195.72 143.14 196.79ZM158.07 196.79C158.07 197.88 158.42 198.43 158.96 198.43C159.5 198.43 159.85 197.88 159.85 196.79C159.85 195.72 159.5 195.18 158.96 195.18C158.42 195.18 158.07 195.72 158.07 196.79ZM135.77 195.73C135.76 196.01 136.01 196.17 136.33 196.26L136.33 195.21C135.96 195.26 135.77 195.47 135.77 195.73ZM147.59 197.52L148.87 197.52L148.87 195.52L148.83 195.52L147.59 197.48L147.59 197.52ZM136.71 197.25L136.71 198.37C137.1 198.32 137.35 198.1 137.35 197.8C137.35 197.52 137.12 197.37 136.71 197.25ZM152.11 198.66C152.11 198.97 151.85 199.21 151.55 199.21C151.25 199.21 151 198.97 151 198.66C151 198.36 151.25 198.11 151.55 198.11C151.85 198.11 152.11 198.36 152.11 198.66Z" fill="#36536B" fill-opacity="1.000000" fill-rule="evenodd"/>
	</g>
</svg>
